<svg xmlns="http://www.w3.org/2000/svg" width="56.763" height="57.368" viewBox="0 0 56.763 57.368"><defs><clipPath id="a"><path fill="#63bb7c" d="M0 0h56.763v57.368H0z"/></clipPath></defs><g fill="#63bb7c" clip-path="url(#a)"><path d="M56.058 32.667h-5.041v-.3a5.9 5.9 0 0 0-5.646-5.948V3.73a.65.65 0 0 0-.6-.6H8.167a.65.65 0 0 0-.605.6v53.033a.65.65 0 0 0 .605.6h47.891a.65.65 0 0 0 .6-.6V33.271a.65.65 0 0 0-.6-.6m-6.251-.3v.3h-9.478v-.3a4.733 4.733 0 0 1 4.739-4.738 4.8 4.8 0 0 1 4.739 4.738M44.06 7.461H8.772V4.336H44.06ZM8.772 8.771H44.06v17.745a6.066 6.066 0 0 0-5.041 5.949v.3h-5.041a.65.65 0 0 0-.606.605v22.788h-24.6Zm25.911 47.387V33.977h4.437v4.436a.6.6 0 1 0 1.209 0v-4.436h9.478v4.436a.6.6 0 1 0 1.21 0v-4.436h4.436v5.041h-1.916a.6.6 0 0 0 0 1.21h1.916v.6h-1.916a.6.6 0 1 0 0 1.21h1.916v.6h-1.916a.6.6 0 1 0 0 1.209h1.916v.606h-1.916a.6.6 0 1 0 0 1.21h1.916v.6h-1.916a.6.6 0 1 0 0 1.21h1.916v.606h-1.916a.605.605 0 0 0 0 1.21h1.916v3.125H37.809a.6.6 0 1 0 0 1.21h17.644v2.016h-20.77Z"/><path d="M17.039 17.543H12a.65.65 0 0 0-.6.605v5.041a.65.65 0 0 0 .6.605h5.041a.65.65 0 0 0 .606-.605v-5.041a.65.65 0 0 0-.606-.605m-.706 5.042H12.5v-3.832h3.831Zm3.225-2.522h12.6a.6.6 0 1 0 0-1.209h-12.6a.65.65 0 0 0-.6.6c-.1.3.2.6.6.6m0 2.531h21.476a.605.605 0 0 0 0-1.21H19.56a.65.65 0 0 0-.6.6c-.1.3.2.6.6.6m-2.521 3.841H12a.65.65 0 0 0-.6.6v5.041a.65.65 0 0 0 .6.606h5.041a.65.65 0 0 0 .606-.606V27.02a.58.58 0 0 0-.606-.6m-.706 5.041H12.5v-3.835h3.831Zm3.225-2.525h8.872a.605.605 0 1 0 0-1.21H19.56a.65.65 0 0 0-.6.6c-.1.3.2.605.6.605m0 2.526h15.123a.605.605 0 1 0 0-1.21H19.56a.65.65 0 0 0-.6.6c-.1.3.2.605.6.605m-2.521 3.735H12a.65.65 0 0 0-.6.6v5.041a.65.65 0 0 0 .6.6h5.041a.65.65 0 0 0 .606-.6v-5.036a.65.65 0 0 0-.606-.6m-.706 5.041H12.5V36.4h3.831Zm3.225-2.525h6.352a.6.6 0 0 0 0-1.21H19.56a.65.65 0 0 0-.6.6c-.1.3.2.6.6.6m0 2.53h10.688a.605.605 0 0 0 0-1.21H19.56a.65.65 0 0 0-.6.6c-.1.3.2.6.6.6m-2.521 3.841H12a.65.65 0 0 0-.6.605v5.042a.65.65 0 0 0 .6.6h5.041a.65.65 0 0 0 .606-.6v-5.042a.58.58 0 0 0-.606-.605m-.708 5.041H12.5v-3.831h3.831Zm3.227-2.52h6.352a.605.605 0 0 0 0-1.21H19.56a.65.65 0 0 0-.6.606c-.1.3.2.6.6.6m10.687 1.214H19.559a.605.605 0 0 0 0 1.21h10.688a.605.605 0 0 0 0-1.21M2.52 36.5a2.521 2.521 0 0 0 0 5.041 2.521 2.521 0 1 0 0-5.041m0 3.73a1.311 1.311 0 0 1 0-2.622 1.311 1.311 0 0 1 0 2.622m50.412-28.938a3.832 3.832 0 1 0 3.831 3.832 3.893 3.893 0 0 0-3.831-3.832m0 6.251a2.52 2.52 0 1 1 2.521-2.521 2.5 2.5 0 0 1-2.521 2.521M49.4 0a.908.908 0 1 1-.908.908A.907.907 0 0 1 49.4 0m6.355 6.856a.907.907 0 1 1-.907.907.907.907 0 0 1 .907-.907M53.839 23.9a.907.907 0 1 1-.907.907.907.907 0 0 1 .907-.907M.907 5.041A.908.908 0 1 1 0 5.949a.907.907 0 0 1 .907-.908m3.832 21.375a.907.907 0 1 1-.908.907.907.907 0 0 1 .908-.907m.605 25.205a.907.907 0 1 1-.907.907.907.907 0 0 1 .907-.907"/></g></svg>