<svg xmlns="http://www.w3.org/2000/svg" width="253" height="46.569" viewBox="0 0 253 46.569"><defs><clipPath id="a"><path fill="none" d="M0 0h253v46.569H0z"/></clipPath></defs><g clip-path="url(#a)"><path fill="#ff4c46" d="M45.99 6.42 30.967 7.765a15.2 15.2 0 0 0-7.9-2.118 11.7 11.7 0 0 0-2.2.2L5.155.039a.575.575 0 0 0-.544 1l9.644 7.469a26.2 26.2 0 0 0-5.637 4.808C5.756 16.608 2.15 25.708.376 30.429a6.05 6.05 0 0 0 1 5.952c3.205 3.892 9.844 10.187 22.607 10.187 11.7 0 17.628-5.265 20.4-9.1a8.4 8.4 0 0 0 1.23-7.383c-1.259-4.264-3.92-11.647-8.241-16.712-.143-.172-.315-.343-.458-.515l9.357-5.552a.476.476 0 0 0-.286-.887"/><path fill="#fff" d="M30.309 33.835a8 8 0 0 1-6.439-.458.145.145 0 0 0-.172.229c.887.944 2.461 2.633 3.434 3.434a.494.494 0 0 0 .687-.057l2.661-2.947c.114-.057 0-.229-.172-.2"/><path fill="#fff" d="M40.696 21.615c-1.431-3.091-3.548-5.981-6.782-6.324a2.6 2.6 0 0 0-1.66.372l-3.52 2.089a2.46 2.46 0 0 1-2.776-.172l-3.062-2.375a8.8 8.8 0 0 0-3.463-1.66c-5.237-1.23-8.785 1.517-11.475 6.668-2.574 4.923-1.143 12.023 5.181 13.679 6.668 1.774 11.074-5.637 12.849-8.1a.83.83 0 0 1 1.374 0c2.747 3.72 6.41 7.7 10.359 6.9 5.208-1.059 4.579-7.583 2.976-11.074M21.38 25.536a2.838 2.838 0 1 1 .744-3.92 2.69 2.69 0 0 1-.744 3.92m13.65.258a2.838 2.838 0 1 1 .744-3.92 2.69 2.69 0 0 1-.744 3.92"/><path fill="#fff" d="M27.304 27.682a.67.67 0 0 0-1 .029l-2.8 3.319a.343.343 0 0 0 .057.515 7.35 7.35 0 0 0 3.777 1.488 7.8 7.8 0 0 0 3.348-.858.36.36 0 0 0 .114-.544Z"/><path fill="#ff4c46" d="M59.125 37.097V14.891h4.922v9.644h16.34v-9.644h4.923v22.206h-4.922v-8.413h-16.34v8.413Zm40.149.544a11.72 11.72 0 0 1-7.869-2.547 8.3 8.3 0 0 1-2.976-6.7 8.39 8.39 0 0 1 2.976-6.7 13.52 13.52 0 0 1 15.8 0 8.3 8.3 0 0 1 2.976 6.7 8.39 8.39 0 0 1-2.976 6.7 11.78 11.78 0 0 1-7.927 2.547m0-3.806a6.73 6.73 0 0 0 4.579-1.488 4.96 4.96 0 0 0 1.746-3.92 4.89 4.89 0 0 0-1.746-3.949 7.68 7.68 0 0 0-9.129.029 5.02 5.02 0 0 0-1.746 3.949 4.87 4.87 0 0 0 1.746 3.92 6.8 6.8 0 0 0 4.55 1.459m23.947 3.806a11.72 11.72 0 0 1-7.869-2.547 8.3 8.3 0 0 1-2.976-6.7 8.39 8.39 0 0 1 2.976-6.7 13.52 13.52 0 0 1 15.8 0 8.3 8.3 0 0 1 2.976 6.7 8.39 8.39 0 0 1-2.976 6.7 11.73 11.73 0 0 1-7.927 2.547m0-3.806a6.73 6.73 0 0 0 4.579-1.488 4.96 4.96 0 0 0 1.746-3.92 4.89 4.89 0 0 0-1.746-3.949 7.68 7.68 0 0 0-9.129.029 5.02 5.02 0 0 0-1.746 3.949 4.87 4.87 0 0 0 1.746 3.92 6.9 6.9 0 0 0 4.55 1.459m20 3.606a4.63 4.63 0 0 1-4.035-1.917c-.658-.916-1.178-2.09-1.178-4.67v-7.55h-2.49v-3.55h3.2v-4.863h4.235v4.863h5.008v3.55h-5.008v6.5c-.029 1.946.286 2.633.744 3.119.83.83 3.348.258 4.264-.315v3.746a9.1 9.1 0 0 1-4.75 1.087m17.294.199a33.8 33.8 0 0 1-9.3-1.345v-3.949a23.5 23.5 0 0 0 8.5 1.488 18.2 18.2 0 0 0 4.722-.429c.944-.286 1.431-.773 1.431-1.488 0-.658-.515-1.145-1.574-1.4a22 22 0 0 0-3.863-.515 49 49 0 0 1-4.55-.4 8.6 8.6 0 0 1-3.863-1.431 3.74 3.74 0 0 1-1.574-3.234 4.63 4.63 0 0 1 2.747-4.292 16 16 0 0 1 7.469-1.459 45 45 0 0 1 8.671.973v3.806a39.6 39.6 0 0 0-8.156-.916c-3.92 0-5.895.6-5.895 1.8 0 .6.544 1.03 1.6 1.259a29 29 0 0 0 3.863.515c1.517.086 3 .258 4.521.458a8.3 8.3 0 0 1 3.863 1.517 3.9 3.9 0 0 1 1.6 3.291 4.6 4.6 0 0 1-2.719 4.321 15.95 15.95 0 0 1-7.5 1.431m33.773-17.885v17.37h-5.409l.687-7.154h-.286c-.8 5.151-3.663 7.7-8.528 7.7-2.49-.057-4.321-.858-5.494-2.461-1.145-1.574-1.746-4.235-1.746-7.927v-7.528h4.922v6.954q0 3.906 1.116 5.58a4.03 4.03 0 0 0 3.634 1.66 5.04 5.04 0 0 0 4.464-2.575 12.35 12.35 0 0 0 1.66-6.839v-4.78Zm6.696-1.689a3.22 3.22 0 0 1-2.232-.715 2.64 2.64 0 0 1-.8-2.089 2.6 2.6 0 0 1 .8-2.089 3.3 3.3 0 0 1 2.232-.687 3.4 3.4 0 0 1 2.261.687 2.57 2.57 0 0 1 .83 2.089c0 1.86-1.03 2.8-3.091 2.8m-2.4 19.03V19.756h4.922v17.37h-4.922Zm32.705.548a11.05 11.05 0 0 1-7.583-2.547 9.265 9.265 0 0 1 0-13.392 11.05 11.05 0 0 1 7.583-2.547 12.1 12.1 0 0 1 7.526 2.175 7.05 7.05 0 0 1 2.947 5.723v2.833h-16.168a4.2 4.2 0 0 0 2.2 3.062 11.6 11.6 0 0 0 5.265.944 14.6 14.6 0 0 0 5.924-1.03c.229-.086 1.86-.8 2-.858v3.949a26.5 26.5 0 0 1-4.55 1.345 31 31 0 0 1-5.151.343m-5.838-10.13 11.589-.286a4.01 4.01 0 0 0-1.488-3.291 7.4 7.4 0 0 0-4.264-1 6.8 6.8 0 0 0-4.178 1.059 4.9 4.9 0 0 0-1.66 3.52m25.077-3.35a1.38 1.38 0 0 0 .487-1.145 1.47 1.47 0 0 0-.487-1.145 2.08 2.08 0 0 0-1.374-.429h-1.86v4.607h.773v-1.488h1.259l.973 1.488h.8l-1.059-1.631a1.6 1.6 0 0 0 .486-.258m-1.431-.229h-1.03v-1.826h1.03a1.46 1.46 0 0 1 .859.229.83.83 0 0 1 .315.687.87.87 0 0 1-.315.687 1.46 1.46 0 0 1-.859.229"/><path fill="#ff4c46" d="M252.685 22.133a3.95 3.95 0 0 0-2.146-2.146 4.24 4.24 0 0 0-3.2 0 3.6 3.6 0 0 0-1.288.858 3.9 3.9 0 0 0-.859 1.288 4.2 4.2 0 0 0-.315 1.6 4.3 4.3 0 0 0 .315 1.6 3.95 3.95 0 0 0 2.146 2.146 4.24 4.24 0 0 0 3.2 0 3.9 3.9 0 0 0 1.288-.858 3.75 3.75 0 0 0 .858-1.316 4.2 4.2 0 0 0 .315-1.6 3.7 3.7 0 0 0-.315-1.574m-.487 3a3.8 3.8 0 0 1-.744 1.145 3.7 3.7 0 0 1-1.145.773 3.75 3.75 0 0 1-2.8.029 3.3 3.3 0 0 1-1.116-.744 3.2 3.2 0 0 1-.744-1.145 3.95 3.95 0 0 1 0-2.8 3.8 3.8 0 0 1 .744-1.145 3.9 3.9 0 0 1 1.116-.773 3.8 3.8 0 0 1 1.4-.258 3.7 3.7 0 0 1 1.4.258 3.42 3.42 0 0 1 1.86 1.86 3.7 3.7 0 0 1 .257 1.4 3.2 3.2 0 0 1-.229 1.4m-37.685 12.31a4.63 4.63 0 0 1-4.035-1.917c-.658-.916-1.178-2.09-1.178-4.67v-7.55h-2.49v-3.55h3.2v-4.863h4.235v4.863h5.008v3.55h-5.008v6.5c-.029 1.946.286 2.633.744 3.119.83.83 3.348.258 4.264-.315v3.746a9.2 9.2 0 0 1-4.75 1.087"/></g></svg>