<svg xmlns="http://www.w3.org/2000/svg" width="55.11" height="55.312" viewBox="0 0 55.11 55.312"><defs><clipPath id="a"><path fill="#599cb3" d="M0 0h55.11v55.312H0z"/></clipPath></defs><g fill="#599cb3" clip-path="url(#a)"><path d="M46.026 16.351h-4.542l2.725-4.239a.656.656 0 0 0-.2-.908L32.9 4.037a.66.66 0 0 0-.908.2l-7.869 12.114H8.781a.65.65 0 0 0-.606.606v9.488H5.652a.65.65 0 0 0-.606.6v8.176H3.129a.65.65 0 0 0-.606.606V43.4a.65.65 0 0 0 .606.6h1.917v7.369a3.94 3.94 0 0 0 3.937 3.936h38.759a3.94 3.94 0 0 0 3.936-3.936V22a5.643 5.643 0 0 0-5.652-5.653M32.7 5.45l10.1 6.561-9.391 14.434H19.076ZM9.387 17.563h13.929l-5.753 8.882H9.387ZM3.734 36.538h5.653a3.13 3.13 0 0 1 0 6.259H3.734ZM47.742 54.2H8.983a2.714 2.714 0 0 1-2.725-2.725v-2.32h44.209v2.322a2.714 2.714 0 0 1-2.725 2.723m2.725-22.71H15.746a.605.605 0 1 0 0 1.211h34.721V42.8h-21.5a.605.605 0 1 0 0 1.21h21.5v3.836H6.258v-3.839h3.129a4.441 4.441 0 1 0 0-8.882H6.258v-7.57h39.768a5.7 5.7 0 0 0 4.441-2.119Zm-4.441-5.047h-11.1l5.753-8.882h5.35a4.441 4.441 0 0 1 0 8.882"/><path d="M9.387 41.584a1.917 1.917 0 0 0 1.918-1.918 1.856 1.856 0 0 0-1.918-1.917 1.856 1.856 0 0 0-1.918 1.917 1.917 1.917 0 0 0 1.918 1.918m0-2.523a.605.605 0 1 1-.606.6.65.65 0 0 1 .606-.6m-6.864-9.487a.909.909 0 1 1-.908.909.91.91 0 0 1 .908-.909M42.494 1.817a.909.909 0 1 1-.909.908.91.91 0 0 1 .909-.908M24.83 0a.909.909 0 1 1-.908.908A.91.91 0 0 1 24.83 0M13.525 10.093a.908.908 0 1 1-.908.909.91.91 0 0 1 .908-.909M54.2 16.351a.908.908 0 1 1-.909.909.91.91 0 0 1 .909-.909m0 27.149a.909.909 0 1 1-.909.908.91.91 0 0 1 .909-.908M.909 47.944a.909.909 0 1 1-.909.909.91.91 0 0 1 .909-.909M31.492 21.4a3.129 3.129 0 1 0-3.129-3.129 3.145 3.145 0 0 0 3.129 3.129m0-5.047a1.917 1.917 0 0 1 1.918 1.918 1.857 1.857 0 0 1-1.918 1.918 1.918 1.918 0 0 1 0-3.836M5.047 9.992a4.48 4.48 0 0 0 4.441-4.441A4.48 4.48 0 0 0 5.047 1.11 4.48 4.48 0 0 0 .606 5.551a4.416 4.416 0 0 0 4.441 4.441m0-7.57a3.129 3.129 0 1 1-3.129 3.129 3.08 3.08 0 0 1 3.129-3.129m49.761 5.653a3.129 3.129 0 1 0-3.129 3.125 3.08 3.08 0 0 0 3.129-3.129m-3.129 1.922a1.917 1.917 0 0 1-1.918-1.918 1.856 1.856 0 0 1 1.918-1.917 1.918 1.918 0 0 1 0 3.835"/></g></svg>