<svg xmlns="http://www.w3.org/2000/svg" width="253" height="70.767" viewBox="0 0 253 70.767"><defs><clipPath id="a"><path fill="none" d="M0 0h253v70.767H0z"/></clipPath></defs><g clip-path="url(#a)"><path fill="#fff" d="M13.813 36.814a7 7 0 0 0-1.67.113 7.006 7.006 0 0 0-5.8 8.033q.008.057.018.112c.4 3.776 4.424 6.958 8.15 7.053a6.3 6.3 0 0 0 1.143-.075c4.031-.653 5.087-4.808 4.423-8.888-.751-4.608-4.036-6.232-6.265-6.348m3.952 10.916a1.69 1.69 0 0 1-1.572.743 2.12 2.12 0 0 1-1.952-2.139 5.2 5.2 0 0 1 .405-2.088 1.9 1.9 0 0 0-.778-2.349 2.2 2.2 0 0 0-1.6-.284 2.07 2.07 0 0 0-1.312.86 4.4 4.4 0 0 0-.48 1.074l-.052.153c-.184.465-.475.6-.672.576a.38.38 0 0 1-.3-.285 3.96 3.96 0 0 1 1.116-3.447 3.62 3.62 0 0 1 3-1.028 3.56 3.56 0 0 1 2.728 1.883 4.13 4.13 0 0 1-.333 3.818c-.047.1-.088.185-.123.266a1.5 1.5 0 0 0-.04 1.459 1.08 1.08 0 0 0 .9.431 2 2 0 0 0 .489-.065c.206-.047.421-.093.551.062a.3.3 0 0 1 .025.36"/><path fill="#fff" d="M65.332 55.471a21 21 0 0 0 1.439-6.684c0-2.817-1.595-3.985-2.61-3.985-.031-.109-.232-.843-.509-1.728a14 14 0 0 0-.562-1.507 5.46 5.46 0 0 0 .98-3.978 5.04 5.04 0 0 0-1.465-2.843 11.94 11.94 0 0 0-5.176-2.56c-.287-.081-1.235-.34-1.318-.366-.007-.054-.069-3.1-.127-4.413a15 15 0 0 0-.582-3.879 10.4 10.4 0 0 0-2.69-4.8c3.283-3.4 5.332-7.142 5.328-10.354-.008-6.173-7.604-8.041-16.966-4.173-.01 0-1.969.833-1.983.84a2018 2018 0 0 0-3.64-3.56C24.779-7.81-8.593 29.228 2.078 38.225l2.331 1.976a11.4 11.4 0 0 0-.649 5.28 10.4 10.4 0 0 0 3.6 6.683 10.96 10.96 0 0 0 7.068 2.837c4.152 9.555 13.637 15.415 24.761 15.746 11.932.353 21.947-5.236 26.144-15.28"/><path fill="#fff" d="M60.219 41.08a3.77 3.77 0 0 0 1.179-2.988 2.6 2.6 0 0 0-.742-1.473 9.3 9.3 0 0 0-4.075-1.951c-.684-.194-1.148-.318-1.648-.485-.89-.3-1.329-.534-1.428-2.225-.044-.74-.171-3.315-.218-4.38-.081-1.865-.3-4.414-1.867-5.467a2.6 2.6 0 0 0-1.338-.432 2.5 2.5 0 0 0-.794.078 4.2 4.2 0 0 0-2.081 1.189 7.12 7.12 0 0 1-5.426 1.834c-1.095-.047-2.254-.219-3.585-.3l-.778-.045a7.17 7.17 0 0 0-6.907 6.327c-.761 5.3 3.033 8.035 4.128 9.641a1.35 1.35 0 0 1 .3.72 1.15 1.15 0 0 1-.39.759 13.67 13.67 0 0 0-2.952 12.737 10 10 0 0 0 .555 1.545c2.769 6.542 11.357 9.587 19.748 6.817a20.5 20.5 0 0 0 3.181-1.36 16.8 16.8 0 0 0 4.885-3.69 14.74 14.74 0 0 0 4.064-8.059c.253-1.685-.117-2.338-.622-2.651a1.83 1.83 0 0 0-1.171-.216 16.4 16.4 0 0 0-1.117-3.848ZM46.467 15.817c.136.031.222-.2.1-.271a15.2 15.2 0 0 0-6.472-1.694.117.117 0 0 1-.116-.119.12.12 0 0 1 .024-.069 6.6 6.6 0 0 1 1.218-1.22.12.12 0 0 0 .021-.171.12.12 0 0 0-.1-.047 17.2 17.2 0 0 0-7.741 2.729.12.12 0 0 1-.184-.124 8.6 8.6 0 0 1 .819-2 .114.114 0 0 0-.153-.157 31.4 31.4 0 0 0-8.819 7.2.12.12 0 0 0 .16.177 27 27 0 0 1 9.521-4.2 26.4 26.4 0 0 1 11.724-.031m-9.876-9.468s-2.9-3.363-3.781-3.611c-5.4-1.456-17.05 6.57-24.49 17.173-3.012 4.29-7.321 11.888-5.26 15.8a16 16 0 0 0 2.462 2.372 9.18 9.18 0 0 1 5.8-3.694 47.1 47.1 0 0 1 14.875-20.883 76 76 0 0 1 10.394-7.157"/><path d="M17.568 47.584a.325.325 0 0 1 .032.367 1.6 1.6 0 0 1-1.511.754 2.1 2.1 0 0 1-1.876-2.168 5.6 5.6 0 0 1 .39-2.12 1.98 1.98 0 0 0-.747-2.384 2 2 0 0 0-1.541-.29 1.98 1.98 0 0 0-1.26.874 4.6 4.6 0 0 0-.462 1.09l-.051.154c-.175.473-.455.612-.646.586-.089-.013-.212-.073-.291-.29a4.17 4.17 0 0 1 1.072-3.5 3.36 3.36 0 0 1 2.886-1.044 3.43 3.43 0 0 1 2.622 1.913 4.39 4.39 0 0 1-.321 3.877q-.067.149-.119.27a1.6 1.6 0 0 0-.037 1.482 1.02 1.02 0 0 0 .86.438 2 2 0 0 0 .469-.066c.2-.047.405-.095.53.062m49.1 1.226a21 21 0 0 1-1.43 6.67c-4.17 10.021-14.12 15.6-25.973 15.247-11.05-.329-20.475-6.179-24.6-15.712a10.87 10.87 0 0 1-7.019-2.835 10.4 10.4 0 0 1-3.578-6.669 11.46 11.46 0 0 1 .642-5.279l-2.313-1.968C-8.204 29.293 24.946-7.67 35.55 1.608c.054.047 3.606 3.544 3.616 3.553l1.971-.839c9.3-3.863 16.846-2 16.856 4.166 0 3.205-2.031 6.941-5.293 10.333a10.4 10.4 0 0 1 2.671 4.784 15 15 0 0 1 .579 3.872c.056 1.307.119 4.349.126 4.4.082.025 1.024.284 1.309.364a11.84 11.84 0 0 1 5.14 2.554 5.03 5.03 0 0 1 1.457 2.842 5.46 5.46 0 0 1-.975 3.969 14 14 0 0 1 .559 1.5c.274.883.473 1.616.5 1.725 1.013.006 2.598 1.168 2.598 3.979Zm-46.841-5.5c-.722-4.68-3.877-6.328-6.019-6.447a6.5 6.5 0 0 0-1.6.114c-3.822.774-5.981 4.036-5.556 8.273a8.56 8.56 0 0 0 7.831 7.163 5.7 5.7 0 0 0 1.1-.078c3.875-.662 4.889-4.882 4.25-9.026m6.532-29.706a75.6 75.6 0 0 1 10.317-7.141s-2.884-3.356-3.756-3.6C27.565 1.41 15.987 9.419 8.596 20.001c-2.99 4.281-7.273 11.863-5.225 15.761a15.6 15.6 0 0 0 2.447 2.366 9.1 9.1 0 0 1 5.759-3.684 47 47 0 0 1 14.78-20.84m11.648 37.033a3.54 3.54 0 0 0 2.5 2.623 11 11 0 0 0 1.971.537c8.477 1.462 16.4-3.4 18.188-4.625.133-.092.222 0 .114.161a3 3 0 0 1-.175.25c-2.184 2.825-8.054 6.1-15.694 6.1-3.332 0-6.662-1.178-7.885-2.988-1.9-2.807-.093-6.9 3.067-6.477l1.384.157a28.87 28.87 0 0 0 14.384-2.31c4.313-2.007 5.941-4.217 5.7-6.006a2.57 2.57 0 0 0-.743-1.462 9.3 9.3 0 0 0-4.077-1.937c-.685-.194-1.15-.316-1.651-.482-.89-.294-1.329-.531-1.43-2.209-.042-.735-.171-3.293-.218-4.349-.081-1.852-.3-4.385-1.869-5.43a2.63 2.63 0 0 0-1.339-.429 2.6 2.6 0 0 0-.8.079 4.2 4.2 0 0 0-2.076 1.177 7.16 7.16 0 0 1-5.437 1.82c-1.1-.045-2.257-.218-3.589-.3a65 65 0 0 0-.778-.044 7.15 7.15 0 0 0-6.915 6.282c-.761 5.26 3.036 7.98 4.132 9.574a1.33 1.33 0 0 1 .3.715 1.14 1.14 0 0 1-.39.753 13.5 13.5 0 0 0-2.953 12.655 10.5 10.5 0 0 0 .555 1.534c2.771 6.495 11.367 9.519 19.766 6.769a20.6 20.6 0 0 0 3.191-1.352 16.8 16.8 0 0 0 4.886-3.663 14.6 14.6 0 0 0 4.068-8c.253-1.675-.117-2.322-.623-2.634a1.86 1.86 0 0 0-1.172-.215 16.2 16.2 0 0 0-1.117-3.821 24.5 24.5 0 0 1-8 3.99 32.3 32.3 0 0 1-10.7 1.16c-2.319-.188-3.853-.867-4.431 1.014a25 25 0 0 0 10.906 1.113.2.2 0 0 1 .218.177.21.21 0 0 1-.123.21s-4.304 2.006-11.145-.117m-12.617-30.5a26.7 26.7 0 0 1 9.458-4.2 26.1 26.1 0 0 1 11.65-.028c.134.031.22-.2.1-.27a15 15 0 0 0-6.43-1.691.12.12 0 0 1-.116-.119.13.13 0 0 1 .024-.069 6.6 6.6 0 0 1 1.211-1.218.121.121 0 0 0-.082-.216 17 17 0 0 0-7.69 2.723.12.12 0 0 1-.165-.032.12.12 0 0 1-.017-.093 8.5 8.5 0 0 1 .814-1.992.114.114 0 0 0-.153-.157 31.3 31.3 0 0 0-8.761 7.181.12.12 0 0 0 .16.177m22.322 17.855a1.116 1.116 0 0 0 1.469-.244c.213-.414-.1-.975-.694-1.253a1.116 1.116 0 0 0-1.469.244c-.215.414.1.975.694 1.253m1.832-6.711a5.06 5.06 0 0 0 .9 2.058 5.7 5.7 0 0 1 1.406 0 4.34 4.34 0 0 0 .069-2.53c-.338-1.535-.794-2.464-1.739-2.319s-.977 1.257-.64 2.791m2.007 3.524a1.188 1.188 0 1 0 .857 1.158 1.04 1.04 0 0 0-.857-1.158"/><path d="M35.884 34.665c-.151-.021-.215-.086-.233-.171-.059-.264.347-.7.777-1.014a4.52 4.52 0 0 1 4.4-.528 3.76 3.76 0 0 1 1.658 1.335c.154.25.184.445.085.547-.155.162-.549-.024-1.191-.305a5.25 5.25 0 0 0-2.48-.535 28 28 0 0 0-3.014.672m6.395 1.317a2.43 2.43 0 0 0-2.189-.718 3.03 3.03 0 0 0-1.593.664 1.02 1.02 0 0 0-.407.636.2.2 0 0 0 .064.153.2.2 0 0 0 .138.052 2.5 2.5 0 0 0 .61-.17 5.3 5.3 0 0 1 2.691-.28c.42.047.619.073.711-.071a.24.24 0 0 0-.024-.267m60.093-10.442c-5.263 0-5.355 5.746-6.6 5.746a.5.5 0 0 1-.465-.544c0-.42.109-.784.109-1.462 0-2.062-1.452-3.74-4.495-3.74a5.94 5.94 0 0 0-5.629 3.687c-.585 1.213-.534 2.057-1.127 2.057-.219 0-.388-.206-.388-.5 0-.88.776-1.684.776-3.572a5.6 5.6 0 0 0-.117-1.243h-5v19.41h6.793V34.843c0-2.075.89-3.4 2.408-3.4 1.007 0 1.9.88 1.9 2.489v11.443h6.794V34.843c0-2.331 1.078-3.4 2.407-3.4 1.115 0 1.9 1.03 1.9 2.489v11.443h6.715V33.459c0-5.207-2.068-7.92-5.978-7.92Zm39.751-5.008h6.715v24.844h-6.715zm8.931 14.906c0 6.6 4.274 10.4 9.822 10.4a11.2 11.2 0 0 0 7.105-2.485v-6.404a11.73 11.73 0 0 1-6.33 2.212c-3.112 0-4.736-1.292-4.736-3.531s1.874-3.495 4.62-3.495a11.67 11.67 0 0 1 6.443 2.136v-6.789a12.2 12.2 0 0 0-7.1-1.98c-5.955 0-9.823 3.722-9.823 9.939Zm31.716-9.86c-2.73 0-4.313 1.266-5.474 3.611-.511 1.035-.549 2.057-1.127 2.057-.216 0-.388-.2-.388-.5 0-1.076 1.281-2.68 1.281-7.415a8.5 8.5 0 0 0-.349-2.756h-5.861v24.803h6.794V34.929c0-1.958 1.03-3.449 2.6-3.449 1.17 0 1.982.951 1.982 2.489v11.409h6.793V33.226c0-5.07-2.212-7.648-6.249-7.648Zm62.343-.076a5.79 5.79 0 0 0-5.392 3.293c-.679 1.25-.778 2.454-1.36 2.454q-.428 0-.428-.5c0-.595.776-1.6.776-3.259a5.6 5.6 0 0 0-.155-1.513h-5.085v24.372h6.833v-7.656a5.43 5.43 0 0 0 5.164 3.077c4.475 0 7.53-3.692 7.53-10.132 0-5.943-2.832-10.132-7.879-10.132Zm-1.825 15.8c-1.37 0-2.873-1.421-2.873-5.009 0-3.125 1.228-4.968 2.873-4.968 1.891 0 2.949 1.822 2.949 4.968 0 3.5-1.218 5.009-2.949 5.009m-122.796-15.8a20.75 20.75 0 0 0-8.956 1.978v5.622a17.1 17.1 0 0 1 7.6-2.444c2.5 0 3.561 1.319 3.411 3.057a34 34 0 0 0-3.49-.148c-5.314 0-8.645 2.075-8.645 6.591 0 3.709 2.889 5.622 6.049 5.622a6.88 6.88 0 0 0 6.433-3.7c.7-1.267.641-2.043 1.1-2.043a.374.374 0 0 1 .379.41c0 .811-.232 1.284-.232 2.383a8 8 0 0 0 .345 2.518h4.885V34.96c0-5.9-2.7-9.461-8.879-9.461Zm-2.289 15.507c-1.261 0-1.938-.552-1.938-1.513 0-1.252 1.178-2.209 4.226-2.209.671 0 1.278.023 1.831.068a4.27 4.27 0 0 1-4.119 3.654M224.66 25.54c-5.263 0-5.355 5.746-6.6 5.746a.5.5 0 0 1-.465-.544c0-.42.109-.784.109-1.462 0-2.062-1.452-3.74-4.495-3.74a5.94 5.94 0 0 0-5.629 3.687c-.585 1.213-.534 2.057-1.127 2.057-.219 0-.388-.206-.388-.5 0-.88.776-1.684.776-3.572a5.6 5.6 0 0 0-.117-1.243h-5.01v19.41h6.794V34.843c0-2.075.89-3.4 2.407-3.4 1.007 0 1.9.88 1.9 2.489v11.443h6.799V34.843c0-2.331 1.078-3.4 2.408-3.4 1.113 0 1.9 1.03 1.9 2.489v11.443h6.715V33.459c0-5.207-2.067-7.92-5.978-7.92Zm-29.387 1.785a7.6 7.6 0 0 1-3.376-.62v18.673h6.714V26.705a8 8 0 0 1-3.338.62m-.038-6.909c-2.777 0-4.231 1.228-4.231 2.639 0 1.521 1.721 2.64 4.231 2.64s4.231-1.119 4.231-2.64c0-1.411-1.456-2.639-4.231-2.639m-59.455 6.909a7.6 7.6 0 0 1-3.376-.62v18.673h6.714V26.705a8 8 0 0 1-3.338.62m-.038-6.909c-2.777 0-4.231 1.228-4.231 2.639 0 1.521 1.721 2.64 4.231 2.64s4.231-1.119 4.231-2.64c0-1.411-1.456-2.639-4.231-2.639"/></g></svg>