<svg xmlns="http://www.w3.org/2000/svg" width="56.158" height="55.553" viewBox="0 0 56.158 55.553"><defs><clipPath id="a"><path fill="#63bb7c" d="M0 0h56.158v55.553H0z"/></clipPath></defs><g fill="#63bb7c" clip-path="url(#a)"><path d="M52.125 2.521a.907.907 0 1 0 .907.907.907.907 0 0 0-.907-.907M14.216.706a.907.907 0 1 0 .908.907.907.907 0 0 0-.908-.907M2.924 15.829a.907.907 0 1 0 .908.907.907.907 0 0 0-.908-.907m51.016 1.815a.907.907 0 1 0 .907.907.91.91 0 0 0-.907-.907M4.84 41.64a.907.907 0 1 0 .907.907.907.907 0 0 0-.907-.907m47.184 8.166a.907.907 0 1 0 .907.907.907.907 0 0 0-.907-.907M12.502 6.352h5.344a3.72 3.72 0 0 1 2.722-1.109h3.831a3.831 3.831 0 1 1 7.662 0h3.831a3.9 3.9 0 0 1 2.723 1.109h6.049a4.26 4.26 0 0 1 4.235 4.234v10.385a8.127 8.127 0 0 1 0 12.4v17.948a4.26 4.26 0 0 1-4.235 4.234H12.805a4.26 4.26 0 0 1-4.235-4.234V10.486a3.757 3.757 0 0 1 3.932-4.134m23.089.1h-4.438a.65.65 0 0 1-.6-.6v-.609a2.521 2.521 0 1 0-5.042 0v.605a.65.65 0 0 1-.6.6h-4.444a2.52 2.52 0 1 0 0 5.041h15.124a2.52 2.52 0 0 0 0-5.041M50.21 27.021a7.01 7.01 0 0 0-4.437-6.453c-2.12 6.755-2.02 6.351-2.02 6.453a.68.68 0 0 1-.6.4c-.2 0 .1.1-6.553-2.319a5.6 5.6 0 0 0-.2 1.916 6.95 6.95 0 0 0 6.853 6.959 6.845 6.845 0 0 0 6.957-6.956m-8.772-6.655 1.715 4.534 1.411-4.639a8.2 8.2 0 0 0-3.125.1m.705 5.445-2.419-6.453a8.66 8.66 0 0 0-4.133 4.133Zm.2 21.474H14.619v2.52h27.727ZM9.578 51.218a2.927 2.927 0 0 0 2.924 2.924h31.86a2.927 2.927 0 0 0 2.924-2.924V34.179a9.4 9.4 0 0 1-3.833 1.108v15.124a.65.65 0 0 1-.6.6h-29.04a.65.65 0 0 1-.6-.6V18.249a.605.605 0 1 1 1.21 0v27.726h27.923V35.187a8.187 8.187 0 0 1-7.159-8.166 7.6 7.6 0 0 1 .3-2.32l-.907-.3a.686.686 0 0 1-.4-.807 9.74 9.74 0 0 1 5.646-5.645.6.6 0 0 1 .807.4l.4 1.008a6 6 0 0 1 1.311-.2v-5.748a.605.605 0 0 1 1.21 0v5.647a7.64 7.64 0 0 1 3.831 1.108v-9.477a2.927 2.927 0 0 0-2.922-2.924H39.22a3.763 3.763 0 0 1-3.529 5.137H20.568a3.79 3.79 0 0 1-3.529-5.142h-4.537a2.927 2.927 0 0 0-2.924 2.924ZM3.832 0a3.83 3.83 0 0 1 3.831 3.832 3.745 3.745 0 0 1-3.831 3.73A3.83 3.83 0 0 1 0 3.731 3.81 3.81 0 0 1 3.832 0m0 6.352a2.5 2.5 0 0 0 2.52-2.52 2.521 2.521 0 1 0-5.041 0 2.56 2.56 0 0 0 2.521 2.52"/><path d="M53.032 39.119a3.125 3.125 0 1 1-3.125 3.125 3.14 3.14 0 0 1 3.125-3.125m0 5.041a1.916 1.916 0 1 0 0-3.831 1.853 1.853 0 0 0-1.915 1.915 1.983 1.983 0 0 0 1.915 1.916m-36.598-8.873h15.829a.605.605 0 0 1 0 1.21H16.535a.65.65 0 0 1-.6-.605.5.5 0 0 1 .5-.6m15.828-1.215h-8.167a.605.605 0 0 1 0-1.209h8.167a.605.605 0 1 1 0 1.209m-15.829-4.435h15.829a.605.605 0 1 1 0 1.21H16.535a.65.65 0 0 1-.6-.6.5.5 0 0 1 .5-.6m15.828-1.321h-8.167a.605.605 0 0 1 0-1.21h8.167a.605.605 0 1 1 0 1.21M16.434 24h15.829a.605.605 0 0 1 0 1.21H16.535a.65.65 0 0 1-.6-.6.47.47 0 0 1 .5-.6m15.828-1.325h-8.167a.605.605 0 0 1 0-1.21h8.167a.605.605 0 1 1 0 1.21"/></g></svg>