<svg xmlns="http://www.w3.org/2000/svg" width="55.351" height="55.489" viewBox="0 0 55.351 55.489"><defs><clipPath id="a"><path fill="#63bb7c" d="M0 0h55.351v55.489H0z"/></clipPath></defs><g fill="#63bb7c" clip-path="url(#a)"><path d="m20.366 46.579-12.6-5.747a4.165 4.165 0 0 1-1.815-6.15 4.27 4.27 0 0 1 5.344-1.613l5.142 2.42a14.55 14.55 0 0 0 5.845 1.311 14 14 0 0 0 6.759-1.714 14.783 14.783 0 0 1 19.459 7.46l3.427 7.663a.634.634 0 0 1-.3.806l-9.986 4.436a.635.635 0 0 1-.807-.3 181 181 0 0 0-2.017-4.537l-.907-2.117a3.58 3.58 0 0 0-4.739-1.815 15.25 15.25 0 0 1-6.351 1.311 15.5 15.5 0 0 1-6.453-1.412m21.274 7.459 8.872-3.932L49 46.579l-8.771 4.033Zm-2.622-6.049.706 1.512 8.772-4.032-1.11-2.42a13.454 13.454 0 0 0-17.746-6.857 16.44 16.44 0 0 1-7.26 1.816 16.2 16.2 0 0 1-6.451-1.41l-5.243-2.321a3.023 3.023 0 0 0-4.033 3.932 2.78 2.78 0 0 0 1.512 1.512l12.6 5.748a13.95 13.95 0 0 0 11.7 0c.7-.2 5.444.1 6.553 2.52m3.528-31.759-4.134 4.134a3.43 3.43 0 0 1 .706 2.218 3.745 3.745 0 0 1-3.831 3.731 3.81 3.81 0 0 1-3.831-3.731 3.17 3.17 0 0 1 .7-2.117l-5.343-4.235a3.63 3.63 0 0 1-4.437 0l-4.133 4.134a3.816 3.816 0 0 1-.4 4.84 3.779 3.779 0 0 1-5.344-5.344 3.824 3.824 0 0 1 4.839-.4l4.134-4.133a3.814 3.814 0 0 1 .4-4.839 3.713 3.713 0 0 1 5.344 0 3.81 3.81 0 0 1 .4 4.839l5.444 4.234a3.63 3.63 0 0 1 4.437 0l4.139-4.238a3.81 3.81 0 0 1 .4-4.839 3.778 3.778 0 0 1 5.343 5.343 3.69 3.69 0 0 1-4.839.4m-29.232 4.642a2.495 2.495 0 1 0 3.528 3.529 2.472 2.472 0 0 0-1.814-4.235 2.2 2.2 0 0 0-1.714.707m13-9.478a2.495 2.495 0 0 0-3.528 3.528 2.495 2.495 0 0 0 3.528-3.528m7.159 9.478a2.554 2.554 0 1 0 1.714-.707 2.2 2.2 0 0 0-1.714.707m13.006-9.478a2.5 2.5 0 1 0-3.529 3.528 2.5 2.5 0 0 0 3.529-3.528m-40.223-.102a3.831 3.831 0 1 1 3.831-3.832 3.83 3.83 0 0 1-3.831 3.832m0-6.352a2.52 2.52 0 1 0 2.52 2.52 2.5 2.5 0 0 0-2.52-2.52m43.555 27.726a2.521 2.521 0 1 1 2.521-2.52 2.56 2.56 0 0 1-2.521 2.52m0-3.73a1.31 1.31 0 1 0 1.311 1.311 1.41 1.41 0 0 0-1.311-1.311M21.677 2.521a.907.907 0 1 0 .907.907.907.907 0 0 0-.907-.907M3.428 17.038a.908.908 0 1 0 .908.908.907.907 0 0 0-.908-.908M21.677 28.33a.908.908 0 1 0 .907.908.907.907 0 0 0-.907-.908m19.559-1.209a.907.907 0 1 0 .907.907.91.91 0 0 0-.907-.907M38.716 0a.907.907 0 1 0 .907.907.91.91 0 0 0-.907-.907m13.207 18.248a.908.908 0 1 0 .907.907.91.91 0 0 0-.907-.907m2.521 20.77a.907.907 0 1 0 .907.907.907.907 0 0 0-.907-.907M18.853 49.1a.605.605 0 0 1 0 1.21H8.168a.605.605 0 0 1 0-1.21ZM.605 51.62h26.516a.605.605 0 0 1 0 1.21H.605a.605.605 0 1 1 0-1.21m3.125-4.435a.65.65 0 0 1 .6-.6h8.166a.605.605 0 1 1 0 1.209H4.335a.58.58 0 0 1-.6-.6"/></g></svg>