<svg xmlns="http://www.w3.org/2000/svg" width="37.253" height="67" viewBox="0 0 37.253 67"><path fill="#7fdeff" d="M11.72 57.8c0-2.635-2.821-3.936-5.089-4.981-2.294-1.059-3.7-1.776-3.7-3.125s1.406-2.065 3.7-3.121c2.268-1.044 5.089-2.345 5.089-4.979s-2.821-3.936-5.089-4.981c-2.294-1.057-3.7-1.774-3.7-3.122s1.406-2.064 3.7-3.121c2.268-1.046 5.089-2.347 5.089-4.981s-2.823-3.935-5.09-4.979c-2.293-1.057-3.7-1.773-3.7-3.12s1.406-2.063 3.7-3.12c2.269-1.044 5.09-2.344 5.09-4.978S8.899 5.258 6.63 4.213c-2.293-1.057-3.7-1.773-3.7-3.12C2.93.49 2.274 0 1.466 0S.001.49.001 1.093c0 2.633 2.821 3.934 5.089 4.979 2.294 1.056 3.7 1.773 3.7 3.12s-1.406 2.063-3.7 3.12C2.822 13.357.001 14.658.001 17.291s2.819 3.933 5.089 4.977c2.294 1.057 3.7 1.773 3.7 3.121s-1.406 2.064-3.7 3.121C2.822 29.555.001 30.856.001 33.49s2.819 3.935 5.089 4.981c2.294 1.056 3.7 1.773 3.7 3.122s-1.406 2.064-3.7 3.121C2.822 45.758.001 47.06.001 49.694s2.819 3.938 5.089 4.983c2.294 1.059 3.7 1.776 3.7 3.124s-1.406 2.066-3.7 3.125C2.822 61.971.001 63.273.001 65.908c0 .6.655 1.092 1.465 1.092s1.464-.488 1.464-1.092c0-1.349 1.406-2.066 3.7-3.125 2.269-1.045 5.09-2.346 5.09-4.983m12.769 0c0-2.635-2.823-3.936-5.089-4.981-2.3-1.059-3.7-1.776-3.7-3.125s1.406-2.065 3.7-3.121c2.266-1.044 5.089-2.345 5.089-4.979s-2.823-3.936-5.09-4.981c-2.294-1.057-3.7-1.774-3.7-3.122s1.406-2.064 3.7-3.121c2.267-1.046 5.09-2.347 5.09-4.981s-2.824-3.935-5.09-4.979c-2.294-1.057-3.7-1.773-3.7-3.12s1.406-2.063 3.7-3.12c2.267-1.044 5.09-2.344 5.09-4.978s-2.823-3.934-5.09-4.979c-2.294-1.057-3.7-1.773-3.7-3.12C15.698.49 15.043 0 14.233 0s-1.465.49-1.465 1.093c0 2.633 2.823 3.934 5.09 4.979 2.293 1.056 3.7 1.773 3.7 3.12s-1.406 2.063-3.7 3.12c-2.268 1.045-5.09 2.346-5.09 4.979s2.821 3.933 5.091 4.977c2.293 1.057 3.7 1.773 3.7 3.121s-1.406 2.064-3.7 3.121c-2.268 1.045-5.09 2.346-5.09 4.98s2.82 3.935 5.09 4.981c2.293 1.056 3.7 1.773 3.7 3.122s-1.406 2.064-3.7 3.121c-2.268 1.044-5.09 2.346-5.09 4.98s2.82 3.938 5.09 4.983c2.293 1.059 3.7 1.776 3.7 3.124s-1.406 2.066-3.7 3.125c-2.268 1.045-5.09 2.347-5.09 4.982 0 .6.657 1.092 1.465 1.092s1.465-.488 1.465-1.092c0-1.349 1.406-2.066 3.7-3.125 2.267-1.045 5.09-2.346 5.09-4.983m12.765 0c0-2.635-2.821-3.936-5.089-4.981-2.294-1.059-3.7-1.776-3.7-3.125s1.406-2.065 3.7-3.121c2.268-1.044 5.089-2.345 5.089-4.979s-2.821-3.936-5.089-4.981c-2.294-1.057-3.7-1.774-3.7-3.122s1.406-2.064 3.7-3.121c2.268-1.046 5.089-2.347 5.089-4.981s-2.821-3.935-5.089-4.979c-2.294-1.057-3.7-1.773-3.7-3.12s1.406-2.063 3.7-3.12c2.268-1.044 5.089-2.344 5.089-4.978s-2.821-3.934-5.089-4.979c-2.294-1.057-3.7-1.773-3.7-3.12C28.464.49 27.81 0 27 0s-1.465.49-1.465 1.093c0 2.633 2.823 3.934 5.09 4.979 2.293 1.056 3.7 1.773 3.7 3.12s-1.406 2.063-3.7 3.12c-2.268 1.045-5.09 2.346-5.09 4.979s2.819 3.933 5.089 4.977c2.294 1.057 3.7 1.773 3.7 3.121s-1.406 2.064-3.7 3.121c-2.266 1.045-5.089 2.346-5.089 4.98s2.819 3.935 5.089 4.981c2.294 1.056 3.7 1.773 3.7 3.122s-1.406 2.064-3.7 3.121c-2.266 1.044-5.089 2.346-5.089 4.98s2.819 3.938 5.089 4.983c2.294 1.059 3.7 1.776 3.7 3.124s-1.406 2.066-3.7 3.125c-2.266 1.045-5.089 2.347-5.089 4.982 0 .6.657 1.092 1.465 1.092s1.464-.488 1.464-1.092c0-1.349 1.406-2.066 3.7-3.125 2.269-1.045 5.09-2.346 5.09-4.983"/></svg>