<svg xmlns="http://www.w3.org/2000/svg" width="59.186" height="58.477" viewBox="0 0 59.186 58.477"><defs><clipPath id="a"><path fill="#63bb7c" d="M0 0h59.186v58.477H0z"/></clipPath></defs><g fill="#63bb7c" clip-path="url(#a)"><path d="M28.331 54.747h2.521a.605.605 0 1 0 0-1.21h-2.521a.605.605 0 0 0 0 1.21M8.167 50.815a3.126 3.126 0 1 0 3.125 3.125 3.02 3.02 0 0 0-3.125-3.125m0 5.041a1.915 1.915 0 1 1 0-3.831 1.915 1.915 0 0 1 0 3.831m43.555-5.646a3.832 3.832 0 1 0 3.831 3.831 3.9 3.9 0 0 0-3.831-3.831m0 6.352a2.521 2.521 0 1 1 2.52-2.521 2.56 2.56 0 0 1-2.52 2.521m2.823-13.208a.907.907 0 1 1-.907.908.907.907 0 0 1 .907-.908m-9.478 8.166a.907.907 0 1 1-.907.908.91.91 0 0 1 .907-.908m6.352-8.166a.907.907 0 1 1-.907.908.907.907 0 0 1 .907-.908M14.821 49.6a.907.907 0 1 1-.907.908.907.907 0 0 1 .907-.908M2.218 52.125a.907.907 0 1 1-.907.908.907.907 0 0 1 .907-.908m55.452 3.832a.907.907 0 1 1-.907.907.91.91 0 0 1 .907-.907m-9.477-12.603a.907.907 0 1 1-.908.908.907.907 0 0 1 .908-.908"/><path d="M54.746 7.461H4.537A4.52 4.52 0 0 0 0 12v31.86a4.52 4.52 0 0 0 4.537 4.54h20.669a4.17 4.17 0 0 1-4.134 3.831h-.2a3.125 3.125 0 0 0 0 6.251h17.541a3.125 3.125 0 1 0 0-6.251h-.3a4.244 4.244 0 0 1-4.136-3.831h20.668a4.52 4.52 0 0 0 4.537-4.537V12a4.43 4.43 0 0 0-4.436-4.537M4.537 8.772h50.209a3.356 3.356 0 0 1 3.327 3.328v27.624H1.31V12a3.186 3.186 0 0 1 3.227-3.228m33.675 44.765h.3a1.916 1.916 0 1 1 0 3.831H20.971a1.916 1.916 0 0 1 0-3.831h.2a5.323 5.323 0 0 0 5.345-5.037h6.352a5.326 5.326 0 0 0 5.344 5.041m16.534-6.352H4.537a3.357 3.357 0 0 1-3.327-3.331v-3.025h56.763v3.025a3.21 3.21 0 0 1-3.227 3.327"/><path d="M22.282 31.457a.6.6 0 1 1-.6.6.6.6 0 0 1 .6-.6m-7.663 0a.6.6 0 1 1-.605.6.605.605 0 0 1 .605-.6m12.502 1.915a.6.6 0 1 1-.6.6.605.605 0 0 1 .6-.6m11.292-3.125a.605.605 0 1 1-.6.6.605.605 0 0 1 .6-.6M13.208 23.29a.605.605 0 1 1-.606.6.6.6 0 0 1 .606-.6"/><path d="M4.437 37.708h50.41a.65.65 0 0 0 .6-.6V11.9a.65.65 0 0 0-.6-.6H4.437a.65.65 0 0 0-.6.6v25.2a.58.58 0 0 0 .6.6m49.806-25.2v24H5.042v-1.918h20.164a.6.6 0 0 0 0-1.209H24.4a2.29 2.29 0 0 0 0-2.521h1.41a1.807 1.807 0 0 0 1.815-1.814 1.83 1.83 0 0 0-1.512-1.815v-9.477h2.823a.605.605 0 1 0 0-1.21h-3.328a.65.65 0 0 0-.6.605v1.915h-2.222v-3.831a.65.65 0 0 0-.6-.605h-6.961a.65.65 0 0 0-.605.605v1.916h-3.832a.65.65 0 0 0-.6.6v1.31H9.075a.736.736 0 0 0-.606.907l.706 1.614 2.217 5.747h-.4a.6.6 0 1 0 0 1.209h14.92a.6.6 0 1 1 0 1.21H9.477a.605.605 0 0 0 0 1.21H12.5a2.5 2.5 0 0 0 0 2.521H5.042V12.5ZM15.326 30.953a1.16 1.16 0 0 1 .6 1.109 1.224 1.224 0 0 1-1.209 1.21 1.3 1.3 0 0 1-1.21-1.21 1.187 1.187 0 0 1 1.816-1.109m1.511-.2h3.226a2.5 2.5 0 0 0 0 2.521h-3.324a2.29 2.29 0 0 0 .1-2.521m6.654 1.311a1.226 1.226 0 0 1-1.209 1.21 1.3 1.3 0 0 1-1.209-1.21 1.224 1.224 0 0 1 1.209-1.21 1.16 1.16 0 0 1 1.209 1.21m-2.014-13.21h-3.127v-1.31a.65.65 0 0 0-.6-.605H15.83v-1.311h5.646Zm-4.437 0h-5.645v-.6h5.645ZM25 20.065v1.108h-6.045a.69.69 0 0 0-.807-.4c-.2.1-.4.2-.4.4h-.908a.605.605 0 0 0 0 1.21h1.209l.2.706h-3.024a.6.6 0 1 0 0 1.21h3.327l.2.7h-2.519a.605.605 0 0 0 0 1.21h2.823l.2.706H12.5l-2.419-6.251-.3-.806c1.007.2 14.315.2 15.222.2m0 3.125h-2.419l-.2-.706H25Zm-4.033-.706.2.706h-1.611l-.2-.706Zm.706 1.915.2.706h-1.712l-.2-.706Zm1.311 0H25v.708h-1.71Zm-2.319 2.622-.2-.706h1.816l.2.706Zm3.228 0-.3-.6H24.9v.706h-1ZM47.588 2.521a.907.907 0 1 1-.907.907.907.907 0 0 1 .907-.907M12.3 3.731a.908.908 0 1 1-.908.908.907.907 0 0 1 .908-.908m18.249-1.21a.907.907 0 1 1-.907.907.91.91 0 0 1 .907-.907M6.957 6.251a2.5 2.5 0 0 0 2.52-2.52 2.521 2.521 0 1 0-5.041 0 2.5 2.5 0 0 0 2.521 2.52m0-3.831a1.335 1.335 0 0 1 1.311 1.311 1.311 1.311 0 0 1-2.622 0A1.335 1.335 0 0 1 6.957 2.42m47.588 4.436a3.4 3.4 0 0 0 3.428-3.428 3.428 3.428 0 1 0-6.856 0 3.34 3.34 0 0 0 3.428 3.428m0-5.646a2.237 2.237 0 0 1 2.218 2.218 2.218 2.218 0 0 1-4.436 0 2.237 2.237 0 0 1 2.218-2.218"/><path d="M40.329 31.457h11.393a.605.605 0 0 0 0-1.21H40.329a.605.605 0 0 0 0 1.21m-1.916-3.731a.605.605 0 1 1-.6.6.605.605 0 0 1 .6-.6m1.916 1.21h11.393a.605.605 0 0 0 0-1.21H40.329a.605.605 0 0 0 0 1.21m-1.916-3.73a.605.605 0 1 1-.6.605.605.605 0 0 1 .6-.605m1.916 1.21h11.393a.605.605 0 0 0 0-1.21H40.329a.605.605 0 0 0 0 1.21m-1.916-3.731a.605.605 0 1 1-.6.605.605.605 0 0 1 .6-.605m1.916 1.215h11.393a.605.605 0 0 0 0-1.21H40.329a.605.605 0 0 0 0 1.21m-1.916-3.735a.6.6 0 1 1-.6.6.605.605 0 0 1 .6-.6m1.916 1.21h11.393a.6.6 0 1 0 0-1.21H40.329a.6.6 0 0 0 0 1.21m-1.916-3.731a.605.605 0 1 1-.6.605.605.605 0 0 1 .6-.605m1.916 1.21h11.393a.605.605 0 0 0 0-1.21H40.329a.605.605 0 0 0 0 1.21"/></g></svg>