<svg xmlns="http://www.w3.org/2000/svg" width="56.158" height="55.553" viewBox="0 0 56.158 55.553"><defs><clipPath id="a"><path fill="#599cb3" d="M0 0h56.158v55.553H0z"/></clipPath></defs><g fill="#599cb3" clip-path="url(#a)"><path d="m25.2 27.726 2.319 1.915 1.815 1.614a3.153 3.153 0 0 1-.3 5.04l-7.058 4.537a.657.657 0 0 0 .7 1.11l7.066-4.542a4.405 4.405 0 0 0 .5-7.058c-.4-.4-3.63-3.125-4.134-3.529a3.148 3.148 0 0 1 0-4.839l4.638-3.831v4.033a.605.605 0 0 0 1.21 0v-5.541a.35.35 0 0 0-.1-.2.76.76 0 0 0-.4-.2h-5.343a.6.6 0 1 0 0 1.21h3.629l-4.335 3.63a4.25 4.25 0 0 0-1.613 3.325 3.76 3.76 0 0 0 1.406 3.326"/><path d="m21.072 29.137-2.722 4.639a.694.694 0 0 0 .6 1.008h5.45a.639.639 0 0 0 .5-1.008l-2.722-4.639a.56.56 0 0 0-.5-.3.49.49 0 0 0-.6.3m2.218 4.336h-3.333l1.613-2.823ZM4.033 2.521a.907.907 0 1 1-.907.907.907.907 0 0 1 .907-.907M41.942.706a.908.908 0 1 1-.908.907.907.907 0 0 1 .908-.907m11.292 15.123a.907.907 0 1 1-.908.907.907.907 0 0 1 .908-.907M2.218 17.644a.908.908 0 1 1-.907.908.91.91 0 0 1 .907-.908m49.1 23.995a.907.907 0 1 1-.907.907.907.907 0 0 1 .907-.907M4.134 49.806a.907.907 0 1 1-.907.907.907.907 0 0 1 .907-.907"/><path d="M43.656 6.351h-5.344a3.73 3.73 0 0 0-2.722-1.109h-3.831a3.831 3.831 0 0 0-7.662 0h-3.831a3.9 3.9 0 0 0-2.723 1.109h-6.049a4.26 4.26 0 0 0-4.235 4.235v40.732a4.26 4.26 0 0 0 4.235 4.235h31.859a4.26 4.26 0 0 0 4.235-4.235V10.485a3.757 3.757 0 0 0-3.932-4.134m-23.089.1H25a.65.65 0 0 0 .6-.605v-.604a2.521 2.521 0 0 1 5.042 0v.605a.65.65 0 0 0 .6.605h4.436a2.52 2.52 0 1 1 0 5.041H20.567a2.52 2.52 0 0 1 0-5.041M46.58 51.217a2.926 2.926 0 0 1-2.924 2.924H11.8a2.926 2.926 0 0 1-2.924-2.924V10.485A2.926 2.926 0 0 1 11.8 7.561h5.243a3.762 3.762 0 0 0 3.524 5.139h15.124a3.79 3.79 0 0 0 3.529-5.139h4.537a2.926 2.926 0 0 1 2.924 2.924v40.732Z"/><path d="M42.244 17.644a.65.65 0 0 0-.6.605v31.558H13.812V24.6a.605.605 0 1 0-1.21 0v25.81a.65.65 0 0 0 .606.6h29.036a.65.65 0 0 0 .6-.6V18.249a.65.65 0 0 0-.6-.605M52.326 0a3.83 3.83 0 0 0-3.831 3.832 3.745 3.745 0 0 0 3.831 3.73 3.83 3.83 0 0 0 3.832-3.831A3.81 3.81 0 0 0 52.326 0m0 6.352a2.5 2.5 0 0 1-2.52-2.52 2.521 2.521 0 1 1 5.041 0 2.56 2.56 0 0 1-2.521 2.52m-49.2 32.767a3.125 3.125 0 1 0 3.125 3.126 3.14 3.14 0 0 0-3.125-3.126m0 5.041a1.916 1.916 0 1 1 0-3.831 1.854 1.854 0 0 1 1.915 1.916 1.98 1.98 0 0 1-1.915 1.915"/><path d="M35.389 42.849a2.521 2.521 0 1 0-2.52-2.52 2.5 2.5 0 0 0 2.52 2.52m0-3.73a1.311 1.311 0 1 1-1.311 1.311 1.335 1.335 0 0 1 1.311-1.311M19.056 22.685a2.521 2.521 0 1 0-2.521-2.52 2.5 2.5 0 0 0 2.521 2.52m0-3.73a1.311 1.311 0 1 1-1.311 1.311 1.27 1.27 0 0 1 1.311-1.311m11.09 24.095a.755.755 0 0 0-.908 0l-1.411 1.412-1.413-1.412a.642.642 0 0 0-.907.908l1.412 1.411-1.412 1.411a.655.655 0 0 0 .4 1.11.53.53 0 0 0 .4-.2l1.412-1.412 1.411 1.412a.642.642 0 0 0 .907-.909l-1.411-1.411 1.411-1.411c.4-.3.4-.706.1-.908m3.84-11.494h5.042a.605.605 0 0 0 0-1.21h-5.042a.605.605 0 1 0 0 1.21m0-1.915h5.042a.605.605 0 0 0 0-1.21h-5.042a.605.605 0 1 0 0 1.21m0-1.916h5.042a.605.605 0 0 0 0-1.21h-5.042a.605.605 0 1 0 0 1.21m0-1.916h5.042a.605.605 0 0 0 0-1.21h-5.042a.605.605 0 1 0 0 1.21m0-1.81h5.042a.605.605 0 0 0 0-1.21h-5.042a.605.605 0 1 0 0 1.21"/></g></svg>