<svg xmlns="http://www.w3.org/2000/svg" width="59.186" height="58.678" viewBox="0 0 59.186 58.678"><defs><clipPath id="a"><path fill="#63bb7c" d="M0 0h59.186v58.678H0z"/></clipPath></defs><g fill="#63bb7c" clip-path="url(#a)"><path d="M28.331 54.847h2.521a.6.6 0 1 0 0-1.21h-2.521a.605.605 0 0 0 0 1.21M8.167 50.915a3.125 3.125 0 1 0 3.126 3.125 3.02 3.02 0 0 0-3.126-3.125m0 5.041a1.916 1.916 0 1 1 1.916-1.916 1.855 1.855 0 0 1-1.916 1.916m43.555-5.646a3.831 3.831 0 1 0 3.832 3.831 3.9 3.9 0 0 0-3.832-3.831m0 6.251a2.521 2.521 0 1 1 2.52-2.52 2.56 2.56 0 0 1-2.52 2.52m2.823-13.208a.907.907 0 1 1-.907.907.907.907 0 0 1 .907-.907m-9.478 8.268a.907.907 0 1 1-.907.907.906.906 0 0 1 .907-.907m6.353-8.268a.907.907 0 1 1-.907.907.907.907 0 0 1 .907-.907m-36.599 6.352a.907.907 0 1 1-.907.907.907.907 0 0 1 .907-.907M2.219 52.226a.907.907 0 1 1-.907.907.907.907 0 0 1 .907-.907m56.056 3.73a.907.907 0 1 1-.907.907.907.907 0 0 1 .907-.907M48.193 43.353a.907.907 0 1 1-.907.907.907.907 0 0 1 .907-.907"/><path d="M54.747 7.46H4.537A4.52 4.52 0 0 0 0 12v32.058A4.52 4.52 0 0 0 4.537 48.6h20.669a4.17 4.17 0 0 1-4.134 3.832h-.2a3.126 3.126 0 0 0 0 6.251h17.542a3.126 3.126 0 0 0 0-6.251h-.3a4.243 4.243 0 0 1-4.136-3.832h20.668a4.52 4.52 0 0 0 4.537-4.537V12a4.434 4.434 0 0 0-4.436-4.54M4.537 8.67h50.21A3.357 3.357 0 0 1 58.074 12v27.723H1.311V12a3.27 3.27 0 0 1 3.226-3.33m33.574 44.866h.3a1.916 1.916 0 1 1 0 3.831H20.972a1.916 1.916 0 1 1 0-3.831h.2a5.323 5.323 0 0 0 5.344-5.041h6.351a5.233 5.233 0 0 0 5.243 5.041m16.636-6.251H4.537a3.357 3.357 0 0 1-3.327-3.327v-3.025h56.763v3.025a3.27 3.27 0 0 1-3.226 3.327"/><path d="M4.436 37.707h50.411a.65.65 0 0 0 .6-.6V11.9a.65.65 0 0 0-.6-.6H4.436a.65.65 0 0 0-.6.6v25.2a.58.58 0 0 0 .6.6m49.806-25.2v11.394H48.6a.605.605 0 1 0 0 1.21h5.645v1.311H48.6a.605.605 0 1 0 0 1.21h5.645v1.31H48.6a.605.605 0 1 0 0 1.21h5.645v1.311H48.6a.605.605 0 1 0 0 1.21h5.645v1.31H48.6a.605.605 0 1 0 0 1.21h5.645V36.5H5.042v-1.314h5.645a.605.605 0 1 0 0-1.21H5.042v-1.31h5.645a.605.605 0 1 0 0-1.21H5.042v-1.311h5.645a.605.605 0 1 0 0-1.21H5.042v-1.31h5.645a.605.605 0 1 0 0-1.21H5.042V25.1h5.645a.605.605 0 1 0 0-1.21H5.042V12.5ZM44.463 2.419a.908.908 0 1 1-.907.907.907.907 0 0 1 .907-.907"/><path d="M18.652 29.54a.907.907 0 1 1-.907.907.907.907 0 0 1 .907-.907m3.126 0a.907.907 0 1 1-.908.907.907.907 0 0 1 .908-.907m3.122 0a.907.907 0 1 1-.907.907.907.907 0 0 1 .907-.907m3.129 0a.907.907 0 1 1-.908.907.907.907 0 0 1 .908-.907M29.34 2.419a.908.908 0 1 1-.907.907.907.907 0 0 1 .907-.907M16.132 3.73a.908.908 0 1 1-.907.908.907.907 0 0 1 .907-.908m-5.444 2.419a2.5 2.5 0 0 0 2.519-2.52 2.52 2.52 0 1 0-5.04 0 2.56 2.56 0 0 0 2.521 2.52m0-3.73A1.335 1.335 0 0 1 12 3.73a1.311 1.311 0 1 1-2.622 0 1.33 1.33 0 0 1 1.312-1.311m40.73 4.437a3.4 3.4 0 0 0 3.428-3.428 3.428 3.428 0 0 0-6.857 0 3.4 3.4 0 0 0 3.429 3.428m0-5.747a2.237 2.237 0 0 1 2.218 2.218 2.219 2.219 0 0 1-4.437 0 2.175 2.175 0 0 1 2.219-2.218"/><path d="M18.652 33.876h22.08a3.428 3.428 0 1 0 0-6.856h-22.08a3.4 3.4 0 0 0-3.428 3.428 3.34 3.34 0 0 0 3.428 3.428m0-5.646h22.08a2.218 2.218 0 1 1 0 4.436h-22.08a2.237 2.237 0 0 1-2.218-2.218 2.174 2.174 0 0 1 2.218-2.218M24 25.71h11.187a.65.65 0 0 0 .6-.6v-1.921a.37.37 0 0 0-.1-.3 7.3 7.3 0 0 0-3.831-2.924 3.528 3.528 0 1 0-4.638 0 7.32 7.32 0 0 0-3.831 2.924.37.37 0 0 0-.1.3V25.1a.87.87 0 0 0 .706.6m3.428-8.469a2.218 2.218 0 1 1 2.217 2.218 2.24 2.24 0 0 1-2.217-2.218M24.7 23.29a6.13 6.13 0 0 1 9.981 0v1.11h-2.317v-.806a.6.6 0 1 0-1.21 0v.806h-2.823v-.806a.65.65 0 0 0-.6-.6c-.3 0-.806.3-.806.6v.806H24.6v-1.11Z"/></g></svg>