<svg xmlns="http://www.w3.org/2000/svg" width="172.866" height="167.577" viewBox="0 0 172.866 167.577"><defs><clipPath id="a"><path fill="#7fdeff" d="M0 0h172.866v167.577H0z"/></clipPath></defs><g fill="#7fdeff" clip-path="url(#a)"><path d="M160.228 141.706a15.15 15.15 0 0 0 5.292-11.467V46.746a15.373 15.373 0 0 0-15.288-15.289H22.638A15.37 15.37 0 0 0 7.352 46.746v83.493a14.7 14.7 0 0 0 5.292 11.467A12.8 12.8 0 0 0 0 154.641a13.05 13.05 0 0 0 12.935 12.936h147a13.05 13.05 0 0 0 12.932-12.935 12.8 12.8 0 0 0-12.638-12.935m-29.7 3.527H147v3.823h-16.467ZM11.173 73.793H29.7v11.17a9.114 9.114 0 1 1-18.228 0v-11.17ZM66.442 47.92C64.974 50.273 53.8 67.327 52.333 69.972H35.867L57.919 47.92Zm4.41 0H78.5l-4.7 22.052H56.742c1.468-2.353 12.641-19.4 14.109-22.052M33.222 73.793h18.522v11.17a9.114 9.114 0 1 1-18.228 0v-11.17Zm22.049 0h18.522v11.17a9.114 9.114 0 1 1-18.228 0v-11.17Zm22.049 0h18.523v11.17a9.114 9.114 0 1 1-18.228 0v-11.17Zm22.049 0h18.522v11.17a9.113 9.113 0 1 1-18.225 0v-11.17Zm22.049 0h18.522v11.17a9.114 9.114 0 1 1-18.228 0v-11.17Zm20.872-3.821L120.245 47.92h5.881l31.454 22.052ZM114.953 47.92 137 69.972h-16.461L106.427 47.92Zm-12.938 0 14.115 22.052H99.076c-.88-4.41-3.821-17.639-4.7-22.052Zm-11.461 0c.291.883 4.116 19.7 4.7 22.052H77.615l4.7-22.052ZM30.575 69.972h-15.58L46.452 47.92h5.881Zm-6.467 27.047a12.82 12.82 0 0 0 7.349-5.587 12.96 12.96 0 0 0 11.173 6.175 13.64 13.64 0 0 0 11.17-6.174 12.96 12.96 0 0 0 11.174 6.174 13.64 13.64 0 0 0 11.17-6.175 12.96 12.96 0 0 0 11.173 6.175 13.64 13.64 0 0 0 11.17-6.175 12.96 12.96 0 0 0 11.173 6.175 13.64 13.64 0 0 0 11.17-6.175A12.96 12.96 0 0 0 132 97.607a13.64 13.64 0 0 0 11.17-6.175 12.82 12.82 0 0 0 7.352 5.587v31.749H24.108Zm119.363-12.347V73.499H161.7v11.173a8.91 8.91 0 0 1-9.111 8.82 8.734 8.734 0 0 1-9.114-8.82M22.638 34.987h127.594A11.476 11.476 0 0 1 161.7 46.452v21.755l-33.812-23.815c-.3-.291-.588-.291-1.177-.291H45.863a1.77 1.77 0 0 0-1.174.291l-33.81 23.815V46.452a11.934 11.934 0 0 1 11.759-11.465m-11.465 95.252V93.783a12.9 12.9 0 0 0 9.114 3.824v33.22a1.9 1.9 0 0 0 1.765 1.765H150.82a1.9 1.9 0 0 0 1.765-1.765v-33.22a12.9 12.9 0 0 0 9.111-3.824v36.164a11.48 11.48 0 0 1-11.464 11.464h-45.57a1.9 1.9 0 0 0-1.765 1.765v5.581H69.972v-5.58a1.9 1.9 0 0 0-1.765-1.765H22.638a11.055 11.055 0 0 1-11.464-11.173m14.7 14.995h16.462v3.823H25.874Zm134.06 18.523h-147a9.114 9.114 0 0 1 0-18.228h9.117v5.587a1.9 1.9 0 0 0 1.762 1.765H44.1a1.9 1.9 0 0 0 1.765-1.765v-5.589H66.15v5.587a1.9 1.9 0 0 0 1.762 1.765h36.75a1.9 1.9 0 0 0 1.765-1.765v-5.587h20.284v5.587a1.9 1.9 0 0 0 1.762 1.765h20.287a1.9 1.9 0 0 0 1.765-1.765v-5.587h9.408a9.114 9.114 0 1 1 0 18.228m-5.586-141.413a11.17 11.17 0 1 0-11.173-11.17 11.36 11.36 0 0 0 11.173 11.17m0-18.519a7.277 7.277 0 0 1 7.349 7.349 7.35 7.35 0 1 1-14.7 0 7.277 7.277 0 0 1 7.349-7.349M44.099 25.87a9.114 9.114 0 1 0-9.114-9.114 9.157 9.157 0 0 0 9.114 9.114m0-14.7a5.584 5.584 0 0 1 5.587 5.584 5.41 5.41 0 0 1-5.587 5.587 5.405 5.405 0 0 1-5.584-5.587 5.58 5.58 0 0 1 5.584-5.584m85.552 5.586a2.646 2.646 0 1 1-2.649 2.647 2.645 2.645 0 0 1 2.645-2.648M98.488 2.059a2.645 2.645 0 1 1-2.645 2.645 2.643 2.643 0 0 1 2.645-2.645M15.583 14.994a2.646 2.646 0 1 1-2.648 2.652 2.645 2.645 0 0 1 2.648-2.652m51.447 1.762a2.646 2.646 0 1 1-2.652 2.647 2.647 2.647 0 0 1 2.648-2.648"/></g></svg>