<svg xmlns="http://www.w3.org/2000/svg" width="23.594" height="31.884" viewBox="0 0 23.594 31.884"><g fill="#fff" transform="translate(-10.91 -3.5)"><path d="M23.948 32.084h-2.33a.56.56 0 0 0 0 1.119h2.33a.56.56 0 0 0 0-1.119"/><path d="M34.5 9.938a.6.6 0 0 0-.034-.19l-.022-.045-.028-.062-3.587-5.632a1.09 1.09 0 0 0-.923-.509h-14.4a1.09 1.09 0 0 0-.923.509L11 9.642l-.028.062-.022.045a.6.6 0 0 0-.034.19l-.006.006v2.579a2.79 2.79 0 0 0 1.975 2.657v16.97a3.24 3.24 0 0 0 3.239 3.233h13.167a3.24 3.24 0 0 0 3.239-3.233V15.18a2.79 2.79 0 0 0 1.97-2.657V9.944Zm-4.616-5.33 3.037 4.777h-3.1l-2-4.777Zm-3.272 0 2 4.777h-3.159l-.52-4.771Zm2.277 5.9v2.019A1.68 1.68 0 0 1 27.21 14.2h-.017a1.68 1.68 0 0 1-1.678-1.678V10.5Zm-7.283-5.89h2.2l.52 4.771h-3.241Zm-.587 5.89H24.4v2.019a1.68 1.68 0 0 1-1.682 1.673H22.7a1.68 1.68 0 0 1-1.678-1.678Zm-.537-5.89-.52 4.771h-3.156l2-4.766ZM19.9 10.5v2.019a1.68 1.68 0 0 1-1.679 1.681H18.2a1.68 1.68 0 0 1-1.678-1.678V10.5Zm-4.392-5.881h2.081l-2 4.766h-3.1ZM13.729 14.2h-.022a1.68 1.68 0 0 1-1.678-1.678V10.5h3.379v2.019a1.68 1.68 0 0 1-1.679 1.681m17.682 17.95a2.12 2.12 0 0 1-2.12 2.114H16.123A2.12 2.12 0 0 1 14 32.151v-1.125h17.411Zm0-2.243H14V15.291a2.77 2.77 0 0 0 1.963-1.108 2.78 2.78 0 0 0 2.237 1.136h.017a2.78 2.78 0 0 0 2.237-1.136 2.78 2.78 0 0 0 2.246 1.136h.022a2.78 2.78 0 0 0 2.237-1.136 2.78 2.78 0 0 0 2.237 1.136h.017a2.78 2.78 0 0 0 2.237-1.136 2.77 2.77 0 0 0 1.963 1.108Zm1.975-17.385a1.68 1.68 0 0 1-1.679 1.678h-.022a1.68 1.68 0 0 1-1.678-1.678V10.5h3.379Z"/><path d="m28.44 26.188-2.993-2.993a4.708 4.708 0 1 0-2.086 2.086l2.993 2.993a1.476 1.476 0 1 0 2.087-2.087Zm-7.193-1.525a3.588 3.588 0 1 1 2.534-1.052 3.6 3.6 0 0 1-2.534 1.052m6.4 2.814a.36.36 0 0 1-.5.006l-2.842-2.842a3 3 0 0 0 .268-.241 3 3 0 0 0 .235-.263l2.842 2.836a.355.355 0 0 1 0 .5Z"/></g></svg>