<svg xmlns="http://www.w3.org/2000/svg" width="82" height="82.204" viewBox="0 0 82 82.204"><defs><clipPath id="a"><path fill="#63bb7c" d="M0 0h82v82.204H0z"/></clipPath></defs><g fill="#63bb7c" clip-path="url(#a)"><path d="m51.832 69.004 18.671-8.514a6.17 6.17 0 0 0 2.689-9.111 6.32 6.32 0 0 0-7.917-2.39l-7.618 3.585a21.55 21.55 0 0 1-8.664 1.942 20.7 20.7 0 0 1-10.007-2.539 21.9 21.9 0 0 0-28.831 11.052L5.078 74.381a.94.94 0 0 0 .447 1.194l14.787 6.572a.94.94 0 0 0 1.2-.447c1.2-2.838 2.988-6.721 2.988-6.721l1.339-3.14a5.307 5.307 0 0 1 7.021-2.689 22.6 22.6 0 0 0 9.409 1.942A22.9 22.9 0 0 0 51.829 69M20.312 80.057 7.169 74.232l2.241-5.228 12.994 5.975Zm3.884-8.961-1.045 2.243-13-5.973 1.644-3.585a19.93 19.93 0 0 1 26.292-10.162 24.35 24.35 0 0 0 10.755 2.69 24 24 0 0 0 9.558-2.092l7.767-3.435a4.478 4.478 0 0 1 5.975 5.825 4.12 4.12 0 0 1-2.24 2.24l-18.67 8.515a20.67 20.67 0 0 1-17.326 0c-1.044-.3-8.065.148-9.708 3.733m-5.229-47.048 6.12 6.124a5.1 5.1 0 0 0-1.046 3.286 5.55 5.55 0 0 0 5.675 5.527 5.643 5.643 0 0 0 5.675-5.527 4.7 4.7 0 0 0-1.044-3.136l7.915-6.274a5.38 5.38 0 0 0 6.573 0l6.123 6.124a5.65 5.65 0 0 0 .6 7.17 5.6 5.6 0 1 0 7.917-7.917 5.666 5.666 0 0 0-7.169-.6l-6.119-6.122a5.65 5.65 0 0 0-.6-7.169 5.5 5.5 0 0 0-7.917 0 5.65 5.65 0 0 0-.6 7.169l-8.065 6.272a5.38 5.38 0 0 0-6.573 0l-6.122-6.272a5.65 5.65 0 0 0-.6-7.169 5.5 5.5 0 0 0-7.915 0 5.584 5.584 0 0 0 7.169 8.512m43.315 6.872a3.782 3.782 0 1 1-2.539-1.047 3.27 3.27 0 0 1 2.539 1.047M43.017 16.878a3.7 3.7 0 0 1 5.227 5.224 3.7 3.7 0 1 1-5.227-5.227M32.411 30.919a3.784 3.784 0 1 1-2.539-1.047 3.27 3.27 0 0 1 2.539 1.047M13.144 16.878a3.607 3.607 0 0 1 5.228 0 3.61 3.61 0 0 1 0 5.227 3.607 3.607 0 0 1-5.228 0 3.61 3.61 0 0 1 0-5.227m59.595-.15a5.676 5.676 0 1 0-5.675-5.681 5.673 5.673 0 0 0 5.675 5.677m0-9.41a3.734 3.734 0 1 1-3.733 3.733 3.7 3.7 0 0 1 3.733-3.733M8.215 48.393a3.734 3.734 0 0 0 0-7.468A3.7 3.7 0 0 0 4.48 44.66a3.794 3.794 0 0 0 3.735 3.733m0-5.526a1.942 1.942 0 1 1 0 3.883 1.976 1.976 0 0 1-1.942-1.941 2.086 2.086 0 0 1 1.942-1.942M49.887 3.734a1.344 1.344 0 1 1-1.344 1.344 1.344 1.344 0 0 1 1.344-1.344m27.034 21.507a1.344 1.344 0 1 1-1.345 1.345 1.344 1.344 0 0 1 1.345-1.345M49.887 41.969a1.344 1.344 0 1 1-1.344 1.345 1.344 1.344 0 0 1 1.344-1.345m-28.976-1.791a1.344 1.344 0 1 1-1.344 1.344 1.345 1.345 0 0 1 1.344-1.344M24.644 0A1.344 1.344 0 1 1 23.3 1.344 1.345 1.345 0 0 1 24.644 0M5.079 27.033a1.344 1.344 0 1 1-1.344 1.344 1.345 1.345 0 0 1 1.344-1.344m-3.735 30.77A1.344 1.344 0 1 1 0 59.147a1.344 1.344 0 0 1 1.344-1.344M54.07 72.739a.9.9 0 1 0 0 1.793h15.833a.9.9 0 0 0 0-1.793Zm27.03 3.733H41.821a.9.9 0 1 0 0 1.793H81.1a.9.9 0 1 0 0-1.793m-4.625-6.57a.963.963 0 0 0-.9-.9h-12.1a.9.9 0 1 0 0 1.791h12.1a.86.86 0 0 0 .9-.895"/></g></svg>