<svg xmlns="http://www.w3.org/2000/svg" width="82" height="78.252" viewBox="0 0 82 78.252"><defs><clipPath id="a"><path fill="#63bb7c" d="M0 0h82v78.252H0z"/></clipPath></defs><g fill="#63bb7c" clip-path="url(#a)"><path d="m24.931 19.305 9.079 6.629-3.459 10.671a.89.89 0 0 0 .289 1.009.7.7 0 0 0 1.009 0l9.078-6.629 9.079 6.629c.144.144.289.144.576.144a.923.923 0 0 0 .865-1.153l-3.458-10.666 9.08-6.634a.89.89 0 0 0 .29-1 .79.79 0 0 0-.865-.576H45.251l-3.46-10.811a.79.79 0 0 0-.865-.577.97.97 0 0 0-.863.577L36.604 17.58H25.359a.97.97 0 0 0-.865.577 1.63 1.63 0 0 0 .432 1.152m12.394.146a.98.98 0 0 0 .865-.576l2.883-8.648 2.891 8.648a.79.79 0 0 0 .865.576h9.078l-7.348 5.332a.89.89 0 0 0-.289 1.009l2.883 8.646-7.351-5.332a.7.7 0 0 0-1.009 0l-7.348 5.332 2.882-8.646a.89.89 0 0 0-.287-1.009l-7.35-5.332Zm40.068 47.99h-6.919v-8.07a.93.93 0 0 0-.865-.866h-9.222V50.44a.93.93 0 0 0-.865-.866h-8.07v-8.066a.93.93 0 0 0-.865-.865H31.561a.93.93 0 0 0-.865.865v8.069h-8.07a.93.93 0 0 0-.865.866v8.065h-9.224a.93.93 0 0 0-.863.866v8.07H4.756a.93.93 0 0 0-.865.865v9.079a.93.93 0 0 0 .865.865h72.92a.93.93 0 0 0 .865-.865v-9.08a1.26 1.26 0 0 0-1.154-.865M32.425 42.225h17.15v7.205h-17.15Zm-8.935 9.083h35.163v7.2H23.49Zm-10.232 8.93h55.339v7.205H13.258Zm63.265 16.285H5.476v-7.206h71.047ZM61.247 38.621a.93.93 0 0 0 .865-.865v-3.6h9.944v3.6a.865.865 0 1 0 1.73 0V7.061a.865.865 0 1 0-1.73 0v3.6h-9.944v-3.6a.865.865 0 1 0-1.73 0v30.7a.83.83 0 0 0 .865.865m10.809-11.678h-9.944v-3.6h9.944Zm0-5.476h-9.944v-3.6h9.944Zm-9.944 7.205h9.944v3.6h-9.944Zm9.944-12.537h-9.944v-3.6h9.944ZM8.935 38.621a.93.93 0 0 0 .865-.865v-3.6h9.944v3.6a.865.865 0 1 0 1.73 0V7.061a.865.865 0 1 0-1.73 0v3.6H9.8v-3.6a.93.93 0 0 0-.865-.865.93.93 0 0 0-.865.865v30.7a.93.93 0 0 0 .865.865m10.809-11.678H9.801v-3.6h9.943Zm0-5.476H9.801v-3.6h9.943Zm-9.8 7.205h9.943v3.6H9.944Zm9.8-12.537H9.801v-3.6h9.943ZM5.332 56.636a4.467 4.467 0 1 0-4.467-4.468 4.49 4.49 0 0 0 4.467 4.468m0-7.205a2.738 2.738 0 0 1 0 5.476 2.65 2.65 0 0 1-2.739-2.739 2.833 2.833 0 0 1 2.739-2.739m71.191-8.934a5.476 5.476 0 1 0 5.476 5.476 5.384 5.384 0 0 0-5.476-5.476m0 8.935a3.6 3.6 0 1 1 3.6-3.6 3.57 3.57 0 0 1-3.6 3.6M1.3 3.603A1.3 1.3 0 1 1 0 4.899a1.3 1.3 0 0 1 1.3-1.3m2.735 22.485a1.3 1.3 0 1 1-1.3 1.3 1.3 1.3 0 0 1 1.3-1.3m9.944 15.276a1.3 1.3 0 1 1-1.3 1.3 1.3 1.3 0 0 1 1.3-1.3M3.17 61.248a1.3 1.3 0 1 1-1.3 1.3 1.3 1.3 0 0 1 1.3-1.3m64.85-10.81a1.3 1.3 0 1 1-1.3 1.3 1.3 1.3 0 0 1 1.3-1.3"/><path d="M54.474 30.551a1.3 1.3 0 1 1-1.3 1.3 1.3 1.3 0 0 1 1.3-1.3M68.02 0a1.3 1.3 0 1 1-1.3 1.3 1.3 1.3 0 0 1 1.3-1.3M48.997 6.196a1.3 1.3 0 1 1-1.3 1.3 1.3 1.3 0 0 1 1.3-1.3M28.39 8.935a1.3 1.3 0 1 1-1.3 1.3 1.3 1.3 0 0 1 1.3-1.3"/></g></svg>