<svg xmlns="http://www.w3.org/2000/svg" width="82" height="82.573" viewBox="0 0 82 82.573"><defs><clipPath id="a"><path fill="#63bb7c" d="M0 0h82v82.572H0z"/></clipPath></defs><g fill="#63bb7c" clip-path="url(#a)"><path d="m81.332 6.555-5.167-.59L75.574.8a1.024 1.024 0 0 0-1.618-.592l-3.253 3.247a1.14 1.14 0 0 0-.294.738l.59 5.461-.886 1.034-.442-3.988a1.027 1.027 0 0 0-1.625-.59L64.8 9.36a1.12 1.12 0 0 0-.3.738l.59 5.462-2.952 2.952a36.029 36.029 0 1 0 1.328 1.329l2.952-2.953c3.987.444 5.462.59 5.462.59a.76.76 0 0 0 .59-.3l3.247-3.247a.973.973 0 0 0-.59-1.624l-3.985-.442.884-.886c3.987.442 5.462.59 5.462.59a.77.77 0 0 0 .59-.294l3.254-3.245c1.032-.442.736-1.328 0-1.476m-7.376-3.542.442 3.543-1.627 1.625-.444-3.543Zm-7.09 10.923-.444-3.543 1.624-1.622.444 3.542zm-5.31 54.909a34.13 34.13 0 1 1-.59-48.858l-4.577 4.575a27.66 27.66 0 1 0 1.181 1.181l4.577-4.575a34.04 34.04 0 0 1-.591 47.677m-22.145-25.24a.77.77 0 0 0 .59-.3l5.9-5.9a10.946 10.946 0 0 1-.59 14.908 11.064 11.064 0 0 1-15.642-15.646 10.953 10.953 0 0 1 14.908-.591l-5.9 5.906a1.05 1.05 0 0 0 .738 1.624m6.495-8.71a12.909 12.909 0 1 0 .738 18.894 12.814 12.814 0 0 0 .59-17.564l3.987-3.987a18.436 18.436 0 1 1-26.723-.739 18.234 18.234 0 0 1 25.388-.59Zm5.315-5.167a20.261 20.261 0 1 0 1.18 1.181l3.985-3.987a25.781 25.781 0 1 1-1.18-1.18ZM71.737 15.56l-3.543-.444 1.624-1.624 3.543.442Zm5.9-5.758-3.538-.442 1.624-1.624 3.543.444Z"/><path d="M5.609 71.354a5.61 5.61 0 1 0 5.609 5.609 5.7 5.7 0 0 0-5.609-5.609m0 9.3a3.69 3.69 0 0 1 0-7.38A3.654 3.654 0 0 1 9.3 76.963a3.75 3.75 0 0 1-3.691 3.691m71.003-58.158a3.69 3.69 0 1 0 3.691 3.689 3.654 3.654 0 0 0-3.691-3.689m0 5.609a1.919 1.919 0 1 1 1.919-1.919 2.06 2.06 0 0 1-1.919 1.919m-65.984-16.68a4.125 4.125 0 0 0 4.131-4.133 4.225 4.225 0 0 0-4.131-4.133 4.226 4.226 0 0 0-4.133 4.133 4.125 4.125 0 0 0 4.133 4.133m0-6.495a2.362 2.362 0 1 1-2.361 2.362 2.33 2.33 0 0 1 2.361-2.361M58.6 1.387a1.329 1.329 0 1 1-1.329 1.329A1.33 1.33 0 0 1 58.6 1.387m20.223 34.985a1.328 1.328 0 1 1-1.329 1.328 1.33 1.33 0 0 1 1.329-1.328m-1.772 29.522a1.328 1.328 0 1 1-1.329 1.328 1.33 1.33 0 0 1 1.329-1.328M65.98 76.079a1.328 1.328 0 1 1-1.329 1.328 1.33 1.33 0 0 1 1.329-1.328M18.894 77.85a1.328 1.328 0 1 1-1.326 1.325 1.33 1.33 0 0 1 1.328-1.328m2.802-74.688a1.329 1.329 0 1 1-1.329 1.329 1.33 1.33 0 0 1 1.329-1.329M2.362 17.921a1.328 1.328 0 1 1-1.328 1.328 1.33 1.33 0 0 1 1.328-1.328M1.328 64.124A1.329 1.329 0 1 1 0 65.45a1.33 1.33 0 0 1 1.328-1.326"/></g></svg>