<svg xmlns="http://www.w3.org/2000/svg" width="82" height="89.637" viewBox="0 0 82 89.637"><defs><clipPath id="a"><path fill="#63bb7c" d="M0 0h82v89.636H0z"/></clipPath></defs><g fill="#63bb7c" clip-path="url(#a)"><path d="M75.745 11.301H9.925a6.19 6.19 0 0 0-6.261 6.261v65.814a6.193 6.193 0 0 0 6.261 6.264h65.82a6.193 6.193 0 0 0 6.26-6.261V17.562a6.29 6.29 0 0 0-6.26-6.261m4.274 6.261v9.009H49.475V13.134h26.27a4.4 4.4 0 0 1 4.274 4.429M5.651 20.769h41.994v5.8H5.651Zm4.274-7.484h37.72v5.8H5.651v-1.371a4.3 4.3 0 0 1 4.274-4.429m65.82 74.367H9.925a4.267 4.267 0 0 1-4.274-4.276V28.555h74.517v54.821a4.4 4.4 0 0 1-4.423 4.276"/><path d="M61.996 17.87a1.985 1.985 0 1 1-1.984 1.986 1.985 1.985 0 0 1 1.984-1.986m5.651 0a1.985 1.985 0 1 1-1.986 1.986 1.985 1.985 0 0 1 1.986-1.986m5.802 0a1.985 1.985 0 1 1-1.986 1.986 1.985 1.985 0 0 1 1.986-1.986m0 16.336H12.368a.985.985 0 0 0-.916.916v45.81a.984.984 0 0 0 .916.916h61.081a.984.984 0 0 0 .916-.916v-45.81a.985.985 0 0 0-.916-.916M72.38 80.022H13.285v-43.83h59.248v43.83ZM14.2 9.47a2.9 2.9 0 1 0-2.9-2.9 3 3 0 0 0 2.9 2.9m0-3.818a.984.984 0 0 1 .916.916.985.985 0 0 1-.916.916.984.984 0 0 1-.915-.916.98.98 0 0 1 .915-.916m61.082 3.817a4.734 4.734 0 0 0 0-9.468 4.76 4.76 0 0 0-4.735 4.735 4.76 4.76 0 0 0 4.735 4.733m0-7.635a2.9 2.9 0 1 1-2.9 2.9 2.9 2.9 0 0 1 2.9-2.9m-73.908 8.55A1.374 1.374 0 1 1 0 11.758a1.374 1.374 0 0 1 1.374-1.374M28.097 2.75a1.374 1.374 0 1 1-1.374 1.374 1.374 1.374 0 0 1 1.374-1.374m20.004 3.816a1.374 1.374 0 1 1-1.374 1.374 1.374 1.374 0 0 1 1.374-1.374M65.355 2.75a1.374 1.374 0 1 1-1.374 1.374 1.374 1.374 0 0 1 1.374-1.374"/><path d="M20.003 50.545h7.635a.984.984 0 0 0 .916-.915v-7.635a.986.986 0 0 0-.916-.918h-7.635a.99.99 0 0 0-.916.918v7.635c-.151.457.306.915.916.915m.916-7.635h5.8v5.8h-5.8Zm-.916 10.384h7.635a.917.917 0 1 0 0-1.833h-7.635a.985.985 0 0 0-.916.916c-.151.457.306.916.916.916m0 2.903h7.635a.917.917 0 1 0 0-1.833h-7.635a.99.99 0 0 0-.916.916c-.151.457.306.916.916.916m12.369-5.65h7.635a.98.98 0 0 0 .915-.915v-7.635a.984.984 0 0 0-.915-.918h-7.635a.99.99 0 0 0-.918.918v7.635a.88.88 0 0 0 .918.915m.915-7.635h5.8v5.8h-5.801Zm-.915 10.384h7.635a.917.917 0 0 0 0-1.833h-7.635a.986.986 0 0 0-.918.916.88.88 0 0 0 .918.916m0 2.903h7.635a.917.917 0 0 0 0-1.833h-7.635a.99.99 0 0 0-.918.916.88.88 0 0 0 .918.916m12.368-5.65h7.636a.984.984 0 0 0 .915-.915v-7.635a.985.985 0 0 0-.915-.918H44.74a.99.99 0 0 0-.916.918v7.635a.985.985 0 0 0 .916.915m.916-7.635h5.8v5.8h-5.8Zm-.916 10.384h7.636a.917.917 0 0 0 0-1.833H44.74a.917.917 0 1 0 0 1.833m0 2.902h7.636a.917.917 0 0 0 0-1.833H44.74a.917.917 0 1 0 0 1.833m12.369-5.651h7.635a.984.984 0 0 0 .916-.915v-7.635a.986.986 0 0 0-.916-.918h-7.635a.986.986 0 0 0-.916.918v7.635a.984.984 0 0 0 .916.915m1.069-7.635h5.8v5.8h-5.8Zm-1.069 10.384h7.635a.917.917 0 1 0 0-1.833h-7.635a.917.917 0 1 0 0 1.833m0 2.902h7.635a.917.917 0 1 0 0-1.833h-7.635a.917.917 0 1 0 0 1.833M20.003 68.563h7.635a.984.984 0 0 0 .916-.915v-7.636a.984.984 0 0 0-.916-.915h-7.635a.985.985 0 0 0-.916.915v7.636c-.151.457.306.915.916.915m.916-7.635h5.8v5.8h-5.8Zm-.916 10.538h7.635a.917.917 0 1 0 0-1.833h-7.635a.99.99 0 0 0-.916.918c-.151.456.306.915.916.915m0 2.902h7.635a.917.917 0 0 0 0-1.833h-7.635a.99.99 0 0 0-.916.916c-.151.457.306.916.916.916m12.369-5.804h7.635a.98.98 0 0 0 .915-.915v-7.636a.98.98 0 0 0-.915-.915h-7.635a.985.985 0 0 0-.918.915v7.636a.88.88 0 0 0 .918.915m.914-7.635h5.8v5.8h-5.8Zm-.914 10.538h7.635a.917.917 0 0 0 0-1.833h-7.635a.99.99 0 0 0-.918.918.88.88 0 0 0 .918.915m0 2.902h7.635a.917.917 0 0 0 0-1.833h-7.635a.99.99 0 0 0-.918.916.88.88 0 0 0 .918.916m12.368-5.804h7.636a.984.984 0 0 0 .915-.915v-7.636a.984.984 0 0 0-.915-.915H44.74a.985.985 0 0 0-.916.915v7.636a.985.985 0 0 0 .916.915m.916-7.635h5.8v5.8h-5.8Zm-.916 10.538h7.636a.917.917 0 0 0 0-1.833H44.74a.917.917 0 1 0 0 1.833m0 2.902h7.636a.917.917 0 0 0 0-1.833H44.74a.917.917 0 0 0 0 1.833m12.369-5.805h7.635a.984.984 0 0 0 .916-.915v-7.636a.984.984 0 0 0-.916-.915h-7.635a.984.984 0 0 0-.916.915v7.636a.984.984 0 0 0 .916.915m1.069-7.635h5.8v5.8h-5.8Zm-1.069 10.538h7.635a.917.917 0 1 0 0-1.833h-7.635a.917.917 0 1 0 0 1.833m0 2.902h7.635a.917.917 0 1 0 0-1.833h-7.635a.917.917 0 0 0 0 1.833"/></g></svg>