<svg xmlns="http://www.w3.org/2000/svg" width="236.718" height="68.64" viewBox="0 0 236.718 68.64"><defs><clipPath id="a"><path fill="none" d="M0 0h236.718v68.639H0z"/></clipPath></defs><path fill="#45535e" d="M25.663 12.797v18.338H8.254V12.797H0v45.015h8.254V39.089h17.409v18.723h8.265V12.797Z"/><g clip-path="url(#a)"><path fill="#45535e" d="M60.076 43.149a6.837 6.837 0 0 1-13.674 0v-19.38h-7.828v19.38a14.664 14.664 0 0 0 29.327 0v-19.38h-7.825Zm29.678-19.153a12.03 12.03 0 0 0-9.211 3.7v-14.9H72.69v27.607c0 10.333 7.471 17.409 15.864 17.409 9.331 0 17.507-7.2 17.507-16.907a16.613 16.613 0 0 0-16.307-16.908m.2 26.55a9.647 9.647 0 0 1 0-19.287c4.509 0 8.581 4.446 8.581 9.644s-4.072 9.642-8.581 9.642m29.297-24.571c0-3.948 2.63-5.2 5.51-5.2 2.318 0 5.386 1.753 7.388 3.883l5.134-6.011a16.22 16.22 0 0 0-12.023-5.824c-8.517 0-14.654 4.947-14.654 13.152 0 15.216 18.724 10.393 18.724 18.912 0 2.627-2.567 4.946-5.508 4.946-4.636 0-6.139-2.254-8.268-4.635l-5.7 5.885c3.634 4.447 8.141 6.7 13.527 6.7 8.077 0 14.59-5.01 14.59-12.838 0-16.907-18.724-11.646-18.724-18.972m39.401-2.418c-8.392 0-15.864 7.072-15.864 17.408v27.676h7.853V53.673a12.04 12.04 0 0 0 9.211 3.7 16.613 16.613 0 0 0 16.307-16.907c0-9.706-8.178-16.907-17.507-16.907m1.4 26.551a9.648 9.648 0 0 1 0-19.289c4.508 0 8.58 4.446 8.58 9.644s-4.072 9.644-8.58 9.644m73.913.438c-4.632 0-5.947-2-5.947-5.073V31.891h7.2v-6.892h-7.2v-9.081l-7.95 3.573v27.674c0 7.077 4.883 10.647 11.58 10.647a16 16 0 0 0 3.133-.25l1.941-7.138c-.877.061-1.878.123-2.758.123"/><path fill="#f8761f" d="M213.251 32.286a17.3 17.3 0 0 0-6.271-6.23 16.8 16.8 0 0 0-6.342-2.2V15.63a6.08 6.08 0 0 0 3.742-5.689 6.25 6.25 0 1 0-12.5 0 6 6 0 0 0 3.664 5.689v8.234a18.1 18.1 0 0 0-5.519 1.73c-3.577-2.717-15.308-11.63-22.169-16.836a6.8 6.8 0 0 0 .288-1.83 6.987 6.987 0 1 0-3.368 5.919l1.448 1.1 19.9 14.337a16.7 16.7 0 0 0-2.815 3.3 15.4 15.4 0 0 0-2.559 8.294v.622a17.4 17.4 0 0 0 1.087 5.994 15.7 15.7 0 0 0 2.578 4.478l-6.6 6.62a5.346 5.346 0 1 0 3.518 5.02 5.4 5.4 0 0 0-.246-1.607l6.826-6.827a17.5 17.5 0 0 0 3.033 1.66 17.7 17.7 0 0 0 7.1 1.491h.474a17 17 0 0 0 14.448-8.025 15.7 15.7 0 0 0 2.465-8.447v-.154a16.56 16.56 0 0 0-2.183-8.42m-8.34 14.321c-1.853 2.059-3.982 3.327-6.39 3.327h-.4a8.64 8.64 0 0 1-4.037-1.071 9.33 9.33 0 0 1-3.536-3.221 7.5 7.5 0 0 1-1.472-4.384v-.474a9 9 0 0 1 1.037-4.367 9.46 9.46 0 0 1 3.292-3.6 8.06 8.06 0 0 1 4.561-1.376h.155a9.24 9.24 0 0 1 4.289.988 9.1 9.1 0 0 1 3.368 3.065 9.75 9.75 0 0 1 1.511 4.306c.025.323.038.654.038.971a8.52 8.52 0 0 1-2.42 5.839"/></g></svg>