<svg xmlns="http://www.w3.org/2000/svg" width="57.57" height="57.432" viewBox="0 0 57.57 57.432"><defs><clipPath id="a"><path fill="#fff" d="M0 0h57.57v57.432H0z"/></clipPath></defs><g fill="#fff" clip-path="url(#a)"><path d="M20.563 39.667a2.8 2.8 0 0 0-1.816-.808c-1.818-.1-3.231.3-3.534-.5-.2-.5.1-.808.909-1.111a2.2 2.2 0 0 1 .807-.1 6.8 6.8 0 0 1 1.515.1.44.44 0 0 1 .3.1l.4-2.019a7.1 7.1 0 0 0-2.524-.2c-1.615.2-3.229 1.211-3.431 2.826a3 3 0 0 0 .1 1.313 2.17 2.17 0 0 0 2.02 1.614c1.413.2 2.725-.1 3.432.2a1.4 1.4 0 0 1 .3.4c.1.4-.2.808-.908 1.01a3.6 3.6 0 0 1-1.01.2 5.6 5.6 0 0 1-1.816-.2 1 1 0 0 0-.4-.1l-.4 2.119a6.54 6.54 0 0 0 3.129.1 5.9 5.9 0 0 0 2.221-.806 2.4 2.4 0 0 0 .908-.805 3.8 3.8 0 0 0 .505-1.11 2.9 2.9 0 0 0-.1-1.313 3.5 3.5 0 0 0-.6-.908m2.92-6.664-.4 9.891 2.119-.706v-2.22l2.725-.909 1.313 1.817 2.119-.706-6.059-7.872Zm1.61 5.451.1-3.432 2.019 2.827Zm9.493-1.212-2.221-7.065-2.12.606 2.826 8.882 6.36-2.019-.5-1.817Zm8.176-2.624-.606-1.92 3.533-1.11-.505-1.615-3.532 1.111-.505-1.716 4.037-1.313-.606-1.816-6.055 1.919 2.826 8.883 6.258-1.918-.606-1.816Z"/><path d="m57.4 34.115-6.152-19.278a3.73 3.73 0 0 0-4.748-2.422l-3.432 1.11L24 7.671a4.432 4.432 0 0 0-8.176-3.332 4.52 4.52 0 0 0 1.313 5.653L9.561 24.123 2.6 26.343a3.73 3.73 0 0 0-2.425 4.744l6.157 19.279a3.73 3.73 0 0 0 4.744 2.422l44.007-13.929a3.847 3.847 0 0 0 2.317-4.744M16.93 4.844a3.138 3.138 0 1 1 1.312 4.24 3.16 3.16 0 0 1-1.312-4.24m1.312 5.656a4.32 4.32 0 0 0 5.147-1.716l17.563 5.346-29.675 9.387ZM2.9 27.554c2.624-.807 41.383-13.121 44.007-13.928a2.49 2.49 0 0 1 3.129 1.615l.606 1.816L1.89 32.5l-.605-1.818A2.494 2.494 0 0 1 2.9 27.554m51.678 10.094L10.571 51.577a2.493 2.493 0 0 1-3.129-1.615l-5.148-16.25 48.65-15.444 5.149 16.251a2.366 2.366 0 0 1-1.515 3.129M41.759 8.176a3.129 3.129 0 1 0-3.129-3.129 3.145 3.145 0 0 0 3.129 3.129m0-5.047a1.917 1.917 0 0 1 1.918 1.918 1.856 1.856 0 0 1-1.918 1.917 1.918 1.918 0 1 1 0-3.835m-8.781 45.42a4.441 4.441 0 1 0 4.441 4.441 4.48 4.48 0 0 0-4.441-4.441m0 7.57a3.129 3.129 0 1 1 3.129-3.129 3.145 3.145 0 0 1-3.129 3.129M43.98 54.3a.908.908 0 1 1-.908.908.907.907 0 0 1 .908-.908m6.258-9.486a.909.909 0 1 1-.908.908.91.91 0 0 1 .908-.908m3.229-37.547a.908.908 0 1 1-.908.909.91.91 0 0 1 .908-.909M31.968 2.523a.908.908 0 1 1-.908.908.91.91 0 0 1 .908-.908M6.735 0a.908.908 0 1 1-.908.908A.907.907 0 0 1 6.735 0M4.817 15.14a.909.909 0 1 1-.908.908.91.91 0 0 1 .908-.908M2.294 49.861a.909.909 0 1 1-.908.908.91.91 0 0 1 .908-.908"/></g></svg>