<svg xmlns="http://www.w3.org/2000/svg" width="59.185" height="58.679" viewBox="0 0 59.185 58.679"><defs><clipPath id="a"><path fill="#63bb7c" d="M0 0h59.185v58.679H0z"/></clipPath></defs><g fill="#63bb7c" clip-path="url(#a)"><path d="M28.33 54.848h2.521a.6.6 0 0 0 0-1.21H28.33a.605.605 0 0 0 0 1.21M8.166 50.915a3.125 3.125 0 1 0 3.126 3.126 3.02 3.02 0 0 0-3.126-3.126m0 5.041a1.916 1.916 0 0 1 0-3.831 1.916 1.916 0 1 1 0 3.831m43.556-5.646a3.831 3.831 0 1 0 3.831 3.831 3.9 3.9 0 0 0-3.831-3.831m0 6.251a2.521 2.521 0 1 1 2.521-2.52 2.5 2.5 0 0 1-2.521 2.52m2.822-13.208a.907.907 0 1 1-.907.907.906.906 0 0 1 .907-.907m-9.477 8.268a.907.907 0 1 1-.907.907.907.907 0 0 1 .907-.907m6.352-8.268a.907.907 0 1 1-.907.907.907.907 0 0 1 .907-.907M14.82 49.705a.907.907 0 1 1-.907.908.907.907 0 0 1 .907-.908M2.218 52.226a.907.907 0 1 1-.907.907.907.907 0 0 1 .907-.907m55.452 3.73a.908.908 0 1 1-.907.907.907.907 0 0 1 .907-.907m-9.478-12.603a.907.907 0 1 1-.907.907.907.907 0 0 1 .907-.907"/><path d="M54.746 7.461H4.537A4.52 4.52 0 0 0 0 12v32.059A4.52 4.52 0 0 0 4.537 48.6H25.2a4.17 4.17 0 0 1-4.134 3.831h-.2a3.125 3.125 0 1 0 0 6.251h17.547a3.125 3.125 0 0 0 0-6.251h-.3a4.244 4.244 0 0 1-4.136-3.831h20.668a4.52 4.52 0 0 0 4.537-4.538V12a4.37 4.37 0 0 0-4.436-4.537M4.537 8.671h50.209A3.356 3.356 0 0 1 58.073 12v27.724H1.31V12a3.27 3.27 0 0 1 3.227-3.329m33.674 44.866h.3a1.916 1.916 0 1 1 0 3.831h-17.54a1.916 1.916 0 1 1 0-3.831h.2a5.324 5.324 0 0 0 5.344-5.042h6.351a5.257 5.257 0 0 0 5.344 5.042m16.535-6.251H4.537a3.36 3.36 0 0 1-3.328-3.327v-3.026h56.764v3.026a3.27 3.27 0 0 1-3.227 3.327"/><path d="M4.435 37.708h50.411a.65.65 0 0 0 .6-.6V11.9a.65.65 0 0 0-.6-.606H4.435a.65.65 0 0 0-.6.606v25.2a.65.65 0 0 0 .6.6m9.679-1.3a2.07 2.07 0 0 1-1.914-1.314h13.51a2.11 2.11 0 0 1-1.916 1.314Zm1.009-13.21a.605.605 0 0 1-1.21 0v-3.831a.605.605 0 1 1 1.21 0Zm-.606 1.91a1.914 1.914 0 0 0 1.916-1.915h5.041A1.915 1.915 0 0 0 23.39 25.1a1.853 1.853 0 0 0 1.915-1.915h1.311a1.311 1.311 0 1 1 0 2.621H11.493a1.311 1.311 0 1 1 0-2.621H12.7a1.83 1.83 0 0 0 1.817 1.915M24 23.19a.605.605 0 0 1-1.21 0v-3.831a.605.605 0 1 1 1.21 0Zm0 4.435a.65.65 0 0 0-.605.606v5.645H22.08v-5.645a.605.605 0 1 0-1.21 0v5.645h-1.312v-5.645a.6.6 0 1 0-1.209 0v5.645h-1.31v-5.645a.605.605 0 1 0-1.21 0v5.645h-1.312v-5.645a.6.6 0 1 0-1.209 0v5.645H12V26.92h13.911v6.956H24.6v-5.645a.65.65 0 0 0-.6-.606m13.2-4.435a.65.65 0 0 0 .6-.606v-1.311h5.041v1.311a.605.605 0 1 0 1.21 0v-1.311h2.521v9.478h-12.5v-9.478H36.6v1.311a.65.65 0 0 0 .606.606m5.645-3.126h-5.044v-1.311a2.521 2.521 0 1 1 5.041 0Zm-8.771 12h12.6v1.21h-12.6Zm1.711 4.336a1.767 1.767 0 0 1-1.714-1.714v-.2h12.6v.2a1.767 1.767 0 0 1-1.711 1.714Zm18.451-23.9v24h-6.856a3.4 3.4 0 0 0 .5-1.714V20.669a.65.65 0 0 0-.6-.605H44.16v-1.311a3.831 3.831 0 0 0-7.663 0v1.311h-3.125a.65.65 0 0 0-.606.605v14.014a3.4 3.4 0 0 0 .5 1.714h-6.952a3.64 3.64 0 0 0 .7-1.714V26.92a2.574 2.574 0 0 0 1.916-2.42 2.5 2.5 0 0 0-2.52-2.52H25.1v-2.521a1.914 1.914 0 0 0-1.916-1.916 1.854 1.854 0 0 0-1.915 1.916v2.521h-5.037v-2.521a1.914 1.914 0 0 0-1.916-1.916 1.855 1.855 0 0 0-1.916 1.916v2.521h-1.31a2.505 2.505 0 0 0-.605 4.94v7.763a2.97 2.97 0 0 0 .7 1.714H4.839V15.628h26.416a.605.605 0 0 0 0-1.21H5.041V12.5ZM47.588 2.42a.907.907 0 1 1-.908.907.907.907 0 0 1 .908-.907M12.3 3.73a.908.908 0 1 1-.907.907.907.907 0 0 1 .907-.907m18.249-1.31a.907.907 0 1 1-.907.907.907.907 0 0 1 .907-.907M6.956 6.15a2.5 2.5 0 0 0 2.52-2.52 2.52 2.52 0 1 0-5.041 0 2.5 2.5 0 0 0 2.521 2.52m0-3.73a1.335 1.335 0 0 1 1.311 1.311 1.311 1.311 0 0 1-2.622 0A1.27 1.27 0 0 1 6.956 2.42m47.588 4.436a3.4 3.4 0 0 0 3.429-3.429 3.428 3.428 0 0 0-6.857 0 3.4 3.4 0 0 0 3.428 3.429m0-5.747a2.24 2.24 0 0 1 2.219 2.218 2.219 2.219 0 1 1-4.437 0 2.237 2.237 0 0 1 2.218-2.218"/></g></svg>