<svg xmlns="http://www.w3.org/2000/svg" width="56.662" height="56.56" viewBox="0 0 56.662 56.56"><defs><clipPath id="a"><path fill="#fff" d="M0 0h56.662v56.56H0z"/></clipPath></defs><g fill="#fff" clip-path="url(#a)"><path d="M56.057 35.893h-1.311v-1.21c0-2.723-1.613-7.36-4.537-8.57L45.37 24.1a11 11 0 0 1-2.319-1.411 19 19 0 0 1-1.512-1.513h-.1l-.1-.1h-.4v-.405a7.13 7.13 0 0 0 3.226-3.225l2.42-.2a.65.65 0 0 0 .6-.606v-1.92a.6.6 0 1 0-1.209 0v1.311l-1.21-.1a9.6 9.6 0 0 0 .2-1.916A1.99 1.99 0 0 0 46.781 12v-.6a2.064 2.064 0 0 0-1.814-2.018 6.943 6.943 0 0 0-6.857-6.559h-.71a6.783 6.783 0 0 0-6.756 6.552 1.99 1.99 0 0 0-1.814 2.018V12a2.06 2.06 0 0 0 1.814 2.017v.4a6.78 6.78 0 0 0 3.731 6.049v.405h-.2a.1.1 0 0 0-.1.1 12.3 12.3 0 0 1-1.815 1.814 9.8 9.8 0 0 1-2.215 1.315L25.2 26.113c-2.924 1.21-4.537 5.847-4.537 8.57v1.21h-3.826v-2.521h1.916a.65.65 0 0 0 .6-.605v-3.831a.65.65 0 0 0-.6-.605h-1.916v-3.125a.65.65 0 0 0-.6-.6H2.52a.65.65 0 0 0-.6.6v3.831a.65.65 0 0 0 .6.6h1.916v2.521H2.52a.65.65 0 0 0-.6.6v3.126H.605A.65.65 0 0 0 0 36.5v5.647a.65.65 0 0 0 .605.6h2.52v13.209a.65.65 0 0 0 .605.6h49.2a.65.65 0 0 0 .6-.6V42.849h2.521a.65.65 0 0 0 .6-.6V36.6c0-.4-.2-.7-.6-.7m-21.57-13.518L37 24.9l-1.715 2.319-1.714-3.831c.2-.3.606-.606.908-1.009m2.621 4.44.706-.907.705 1.007v3.831a.705.705 0 1 1-1.411 0Zm1.515-1.919 2.521-2.521a7.7 7.7 0 0 0 .907.908l-1.816 3.832Zm6.856-13.611v.6a.76.76 0 0 1-.5.707v-2.01a.95.95 0 0 1 .5.706M30.146 12v-.6a.76.76 0 0 1 .5-.706V12.7a.76.76 0 0 1-.5-.707m1.713 2.32V9.577A5.594 5.594 0 0 1 37.4 4.033h.705a5.594 5.594 0 0 1 5.546 5.544v4.74a8 8 0 0 1-.2 1.613l-5.041.4a.657.657 0 0 0 .1 1.311l4.336-.3a5.6 5.6 0 0 1-4.638 2.521h-.706a5.617 5.617 0 0 1-5.647-5.544m5.545 6.754a7.8 7.8 0 0 0 2.419-.2v1.108L37.809 24l-2.118-2.118v-1.011a4.7 4.7 0 0 0 1.714.2M22.08 34.784c0-2.723 1.613-6.554 3.731-7.461l4.838-2.017a11.4 11.4 0 0 0 1.916-1.006l2.017 4.537a.66.66 0 0 0 1.109.1l.3-.3v2.219a2.017 2.017 0 0 0 4.033 0v-2.122l.1.2a.66.66 0 0 0 1.109-.1l2.121-4.534a6.9 6.9 0 0 0 1.916 1.008l4.838 2.017c2.117.907 3.731 4.738 3.731 7.461v1.21h-3.528v-3.935a.606.606 0 0 0-1.211 0v3.832H26.718v-3.832a.605.605 0 1 0-1.21 0v3.832H22.08ZM3.125 25.81h12.6v2.521h-12.6Zm2.521 3.832h12.6v2.52h-12.6Zm-2.521 3.73h12.6v2.521h-12.6Zm1.311 12.6h47.89v9.477H4.436Zm47.89-1.21H4.436v-1.913h47.89Zm3.126-3.226H1.21V37.1h54.242Z"/><path d="M7.763 15.627c-.1-.1-.2-.1-.2-.2l-.806 1.511a5.83 5.83 0 0 0 2.823.908v1.31h.807v-1.21a3.6 3.6 0 0 0 1.007-.2 2.6 2.6 0 0 0 1.406-1.111 2.36 2.36 0 0 0 0-2.016 2.2 2.2 0 0 0-1.21-1.109 4.3 4.3 0 0 0-1.412-.4v-1.516a4 4 0 0 1 1.722.706l.807-1.513a12 12 0 0 0-1.109-.5 3.1 3.1 0 0 0-1.31-.3V8.872h-.811V9.98a2.73 2.73 0 0 0-2.319 1.513 3.8 3.8 0 0 0-.1 1.815 1.97 1.97 0 0 0 1.008 1.008 8.5 8.5 0 0 0 1.513.5v1.513a7.6 7.6 0 0 1-1.815-.706m2.419-.6a1.7 1.7 0 0 1 .606.3.4.4 0 0 1 .2.4c0 .4-.3.606-.807.606ZM9.074 12.7a.52.52 0 0 1-.2-.4c0-.4.3-.605.806-.605V12.9a1.4 1.4 0 0 1-.6-.2m9.874-3.223-.6 1.31a6.4 6.4 0 0 0 2.318.807V12.6h.605v-1.006a2.13 2.13 0 0 0 2.017-1.108 2.23 2.23 0 0 0 0-1.614 1.82 1.82 0 0 0-1.009-.907 4.6 4.6 0 0 0-1.108-.3V6.452a3.8 3.8 0 0 1 1.411.605l.6-1.209a4 4 0 0 0-.908-.4c-.3-.1-.7-.2-1.108-.3v-.914h-.606v.908a2.26 2.26 0 0 0-1.915 1.21 2.34 2.34 0 0 0-.1 1.411 2.1 2.1 0 0 0 .806.807c.5.2 1.009.3 1.21.4v1.21a3 3 0 0 1-1.613-.706m2.117-.3a1.7 1.7 0 0 0 .505.2.52.52 0 0 1 .2.4c0 .3-.2.5-.706.5Zm-.907-1.916a.52.52 0 0 1-.2-.4c0-.3.2-.5.6-.5V7.46a.8.8 0 0 1-.4-.2M25 5.645l-.4.908a3.35 3.35 0 0 0 1.614.5v.706h.4v-.703a1.53 1.53 0 0 0 1.411-.705 1.09 1.09 0 0 0 0-1.109 1.09 1.09 0 0 0-.706-.605 1.7 1.7 0 0 0-.807-.2v-.808a3.4 3.4 0 0 1 1.009.4l.4-.807-.606-.3a1.9 1.9 0 0 0-.807-.2v-.6h-.4v.6a1.44 1.44 0 0 0-1.311.908 1.7 1.7 0 0 0 0 1.008.91.91 0 0 0 .6.605c.3.2.706.2.807.3v.806c-.5-.3-1.11-.605-1.21-.706m1.511-.3c.1 0 .3.1.3.2.1.1.1.1.1.3s-.2.3-.5.3Zm-.6-1.311c-.1-.1-.1-.1-.1-.2 0-.2.1-.3.4-.4v.806c-.1-.1-.2-.1-.3-.2"/><path d="M9.881 21.576a7.562 7.562 0 1 0 0-15.124 7.562 7.562 0 0 0 0 15.124m0-13.813a6.39 6.39 0 0 1 6.352 6.352 6.352 6.352 0 1 1-6.352-6.352m43.051 13.611a3.126 3.126 0 1 0-3.126-3.126 3.14 3.14 0 0 0 3.126 3.126m0-5.041a1.914 1.914 0 0 1 1.915 1.915 1.854 1.854 0 0 1-1.915 1.916 1.915 1.915 0 1 1 0-3.831m-29.642 0a3.832 3.832 0 1 0 3.831 3.832 3.83 3.83 0 0 0-3.831-3.832m0 6.352a2.521 2.521 0 1 1 2.521-2.52 2.5 2.5 0 0 1-2.521 2.52M46.277.7a.908.908 0 1 1-.907.907.907.907 0 0 1 .907-.907M25.508 12a.908.908 0 1 1-.907.908.907.907 0 0 1 .907-.908M13.51 0a.907.907 0 1 1-.91.907.907.907 0 0 1 .91-.907M.907 5.746A.908.908 0 1 1 0 6.654a.907.907 0 0 1 .907-.908m.706 16.334a.907.907 0 1 1-.907.907.906.906 0 0 1 .907-.907M52.629 8.872a.907.907 0 1 1-.907.907.907.907 0 0 1 .907-.907M54.545 24.6a.907.907 0 1 1-.908.907.907.907 0 0 1 .908-.907"/></g></svg>