<svg xmlns="http://www.w3.org/2000/svg" width="82" height="81.854" viewBox="0 0 82 81.854"><defs><clipPath id="a"><path fill="#63bb7c" d="M0 0h82v81.854H0z"/></clipPath></defs><g fill="#63bb7c" clip-path="url(#a)"><path d="m55.674 5.322-1.007 4.6a17.5 17.5 0 0 0-3.453 1.438l-4.027-2.583a.89.89 0 0 0-1.151.144l-2.447 2.443a1.09 1.09 0 0 0-.143 1.15l2.59 4.029a17.6 17.6 0 0 0-1.44 3.453l-4.6 1.006a.91.91 0 0 0-.719.863v3.452a.914.914 0 0 0 .719.865l4.6 1.007a17.7 17.7 0 0 0 1.44 3.45l-2.587 4.03a.89.89 0 0 0 .143 1.15l2.447 2.446a1.09 1.09 0 0 0 1.151.144l4.027-2.59a17.5 17.5 0 0 0 3.453 1.438l1.007 4.6a.91.91 0 0 0 .862.719h3.45a.91.91 0 0 0 .863-.719l1.007-4.6a17.5 17.5 0 0 0 3.453-1.438l4.028 2.59a.89.89 0 0 0 1.151-.144l2.446-2.446a1.09 1.09 0 0 0 .143-1.15l-2.588-4.029a17.6 17.6 0 0 0 1.437-3.45l4.6-1.007a.91.91 0 0 0 .719-.865v-3.452a.91.91 0 0 0-.719-.863l-4.6-1.006a17.5 17.5 0 0 0-1.437-3.453l2.588-4.029a.89.89 0 0 0-.143-1.15l-2.445-2.446a1.09 1.09 0 0 0-1.151-.142l-3.885 2.59a12.4 12.4 0 0 0-3.453-1.438l-1.006-4.6a.91.91 0 0 0-.863-.718H56.68a1.08 1.08 0 0 0-1.006.718m3.74 1.148 1.007 4.459a1.18 1.18 0 0 0 .719.719 11.6 11.6 0 0 1 3.884 1.582 1.23 1.23 0 0 0 1.007 0l3.74-2.446 1.44 1.438-2.446 3.885a1.23 1.23 0 0 0 0 1.007 13 13 0 0 1 1.584 3.882 1.19 1.19 0 0 0 .721.719l4.459 1.007v2.013l-4.459 1.007a1.19 1.19 0 0 0-.721.719 11.6 11.6 0 0 1-1.581 3.884 1.23 1.23 0 0 0 0 1.007l2.446 3.884-1.44 1.44-3.886-2.446a1.23 1.23 0 0 0-1.007 0 13 13 0 0 1-3.884 1.582 1.19 1.19 0 0 0-.719.719l-1.007 4.46h-2.016l-1.006-4.46a1.18 1.18 0 0 0-.719-.719 11.6 11.6 0 0 1-3.881-1.582 1.23 1.23 0 0 0-1.007 0l-3.884 2.447-1.44-1.44 2.447-3.884a1.23 1.23 0 0 0 0-1.007 11.6 11.6 0 0 1-1.582-3.884 1.19 1.19 0 0 0-.719-.719l-4.46-1.007v-2.014l4.46-1.007a1.19 1.19 0 0 0 .719-.719 11.6 11.6 0 0 1 1.582-3.884 1.23 1.23 0 0 0 0-1.007l-2.3-3.885 1.434-1.439 3.884 2.446a1.22 1.22 0 0 0 1.006 0 11.6 11.6 0 0 1 3.885-1.582 1.18 1.18 0 0 0 .719-.719l1.008-4.456Z"/><path d="M53.948 23.592a4.315 4.315 0 1 0 4.315-4.315 4.425 4.425 0 0 0-4.315 4.315m7.049 0a2.59 2.59 0 1 1-2.59-2.588 2.674 2.674 0 0 1 2.59 2.588"/><path d="M49.057 23.591a9.207 9.207 0 1 0 18.414 0 .863.863 0 0 0-1.726 0 7.48 7.48 0 1 1-7.481-7.48.93.93 0 0 0 .865-.865.93.93 0 0 0-.865-.862 9.27 9.27 0 0 0-9.206 9.206"/><path d="M82 23.592a.864.864 0 0 0-1.727 0A21.866 21.866 0 1 1 58.407 1.726a.93.93 0 0 0 .863-.865.93.93 0 0 0-.863-.861A23.592 23.592 0 1 0 82 23.592M26.325 76.678l1.007-4.6a17.7 17.7 0 0 0 3.453-1.438l4.028 2.59a.894.894 0 0 0 1.151-.144l2.446-2.446a1.09 1.09 0 0 0 .143-1.15l-2.588-4.029a17.5 17.5 0 0 0 1.438-3.453l4.6-1.007a.91.91 0 0 0 .719-.862v-3.458a.91.91 0 0 0-.719-.863l-4.6-1.007a17.6 17.6 0 0 0-1.438-3.453l2.588-4.028a.89.89 0 0 0-.143-1.15l-2.446-2.446a1.09 1.09 0 0 0-1.151-.144l-4.028 2.59a12.5 12.5 0 0 0-3.453-1.438l-1.007-4.6a.91.91 0 0 0-.862-.719h-3.452a.91.91 0 0 0-.863.719l-1.007 4.6a17.6 17.6 0 0 0-3.453 1.438l-4.029-2.588a.89.89 0 0 0-1.15.144l-2.446 2.443a1.08 1.08 0 0 0-.144 1.15l2.59 4.028a17.7 17.7 0 0 0-1.438 3.453l-4.6 1.007a.91.91 0 0 0-.719.863v3.453a.91.91 0 0 0 .719.862l4.6 1.007a17.6 17.6 0 0 0 1.438 3.453l-2.589 4.03a.89.89 0 0 0 .144 1.15l2.446 2.446a1.09 1.09 0 0 0 1.15.144l4.028-2.59a17.7 17.7 0 0 0 3.453 1.438l1.007 4.6a.915.915 0 0 0 .863.719h3.453a1.06 1.06 0 0 0 .862-.719m-3.74-1.151-1.006-4.46a1.19 1.19 0 0 0-.721-.719 11.6 11.6 0 0 1-3.884-1.582 1.23 1.23 0 0 0-1.007 0l-3.74 2.446-1.44-1.435 2.447-3.88a1.23 1.23 0 0 0 0-1.007 11.6 11.6 0 0 1-1.582-3.893 1.19 1.19 0 0 0-.719-.719l-4.46-.862V57.4l4.46-1.008a1.19 1.19 0 0 0 .719-.721 11.6 11.6 0 0 1 1.582-3.879 1.23 1.23 0 0 0 0-1.007l-2.447-3.887 1.44-1.438 3.884 2.446a1.23 1.23 0 0 0 1.007 0 11.6 11.6 0 0 1 3.885-1.582 1.18 1.18 0 0 0 .718-.719l1.009-4.46h2.013l1.007 4.46a1.18 1.18 0 0 0 .719.719 11.6 11.6 0 0 1 3.882 1.582 1.23 1.23 0 0 0 1.007 0l3.885-2.446 1.438 1.438-2.443 3.884a1.23 1.23 0 0 0 0 1.007 13 13 0 0 1 1.581 3.884 1.2 1.2 0 0 0 .721.721L41 57.4v2.015l-4.46 1.005a1.2 1.2 0 0 0-.721.721 11.6 11.6 0 0 1-1.581 3.884 1.23 1.23 0 0 0 0 1.007l2.446 3.882-1.438 1.44-3.885-2.446a1.23 1.23 0 0 0-1.007 0 13 13 0 0 1-3.883 1.584 1.18 1.18 0 0 0-.719.719L24.6 75.526Z"/><path d="M28.052 58.407a4.315 4.315 0 1 0-4.315 4.315 4.424 4.424 0 0 0 4.315-4.315m-7.047 0a2.589 2.589 0 1 1 2.588 2.588 2.673 2.673 0 0 1-2.588-2.588"/><path d="M32.947 58.407a9.207 9.207 0 0 0-18.414 0 .924.924 0 0 0 .862.862.93.93 0 0 0 .865-.862 7.48 7.48 0 1 1 7.48 7.481.863.863 0 1 0 0 1.725 9.27 9.27 0 0 0 9.207-9.206"/><path d="M23.593 34.671A23.607 23.607 0 0 0 0 58.262a.93.93 0 0 0 .863.863.93.93 0 0 0 .863-.863 21.867 21.867 0 1 1 21.867 21.865.864.864 0 0 0 0 1.727 23.593 23.593 0 1 0 0-47.185m-10.934-6.185a6.762 6.762 0 1 0-6.76-6.763 6.85 6.85 0 0 0 6.76 6.763m0-11.8a4.891 4.891 0 1 1-4.894 4.891 4.943 4.943 0 0 1 4.891-4.891m54.382 40.571a4.46 4.46 0 1 0 4.459 4.46 4.39 4.39 0 0 0-4.459-4.46m0 7.193a2.733 2.733 0 1 1 2.732-2.732 2.73 2.73 0 0 1-2.732 2.732M6.331 5.034a1.295 1.295 0 1 1-1.294 1.3 1.293 1.293 0 0 1 1.294-1.3m23.447 0a1.295 1.295 0 1 1-1.294 1.3 1.293 1.293 0 0 1 1.294-1.3m45.891 42.295a1.295 1.295 0 1 1-1.294 1.3 1.295 1.295 0 0 1 1.294-1.3m-22.586 9.926a1.294 1.294 0 1 1-1.29 1.294 1.294 1.294 0 0 1 1.294-1.294m9.923 17.983a1.295 1.295 0 1 1-1.294 1.294 1.294 1.294 0 0 1 1.294-1.294m-17.981 2.734a1.294 1.294 0 1 1-1.294 1.294 1.294 1.294 0 0 1 1.294-1.294M3.742 32.08a1.294 1.294 0 1 1-1.3 1.294 1.294 1.294 0 0 1 1.3-1.294"/></g></svg>