<svg xmlns="http://www.w3.org/2000/svg" width="56.726" height="56.725" viewBox="0 0 56.726 56.725"><defs><clipPath id="a"><path fill="#fff" d="M0 0h56.726v56.725H0z"/></clipPath></defs><g fill="#fff" clip-path="url(#a)"><path d="M53.6 12.616H35.73a4.42 4.42 0 0 0 1.313-3.129 4.344 4.344 0 0 0-8.075-2.22 4.5 4.5 0 0 0-3.734-2.12 4.31 4.31 0 0 0-4.341 4.34 4.43 4.43 0 0 0 1.307 3.129H4.34a.65.65 0 0 0-.605.607V21.4a.65.65 0 0 0 .605.6h3.836v34.119a.65.65 0 0 0 .605.606h40.374a.65.65 0 0 0 .606-.606V22.1H53.6a.65.65 0 0 0 .606-.6v-8.177a.675.675 0 0 0-.606-.707M32.7 6.358a3.129 3.129 0 1 1 0 6.258h-3.126V9.487A3.145 3.145 0 0 1 32.7 6.358M22.1 9.487a3.13 3.13 0 0 1 6.259 0v3.129h-3.125A3.145 3.145 0 0 1 22.1 9.487m2.423 15.141H9.387V22.1h15.14ZM9.387 25.839h15.14v29.675H9.387ZM25.839 22.1H32.2v33.413h-6.361Zm7.57 3.735H48.55v29.679H33.409Zm15.141-1.207H33.409V22.1H48.55Zm4.441-3.836H5.047v-6.964h22.609l-1.918 2.221a.646.646 0 1 0 1.009.807l2.322-2.725 2.321 2.725a.646.646 0 0 0 1.01-.807l-1.918-2.221h22.61v6.964ZM51.679 0a4.48 4.48 0 0 0-4.441 4.44 4.441 4.441 0 0 0 8.882 0A4.48 4.48 0 0 0 51.679 0m0 7.57a3.13 3.13 0 1 1 3.129-3.13 3.145 3.145 0 0 1-3.129 3.13M3.129 39.767a3.13 3.13 0 0 0 0 6.259 3.13 3.13 0 0 0 0-6.259m0 5.047a1.917 1.917 0 0 1 0-3.835A1.857 1.857 0 0 1 5.047 42.9a1.985 1.985 0 0 1-1.918 1.917M44.411.706a.909.909 0 1 1-.908.908.91.91 0 0 1 .908-.908M17.966 0a.908.908 0 1 1-.908.908.91.91 0 0 1 .908-.908m37.851 27.757a.908.908 0 1 1-.909.908.91.91 0 0 1 .909-.908m-2.523 17.057a.909.909 0 1 1-.909.908.91.91 0 0 1 .909-.908M2.221 28.463a.909.909 0 1 1-.909.909.91.91 0 0 1 .909-.909M5.35 50.467a.909.909 0 1 1-.908.909.91.91 0 0 1 .908-.909M3.432 5.753a.909.909 0 1 1-.908.908.91.91 0 0 1 .908-.908"/></g></svg>