<svg xmlns="http://www.w3.org/2000/svg" width="224" height="54.486" viewBox="0 0 224 54.486"><path fill="#fff" d="M151.354 48.432h6.054v-6.054h-6.054Zm42.375 0h6.051v-6.054h-6.054Zm24.216-24.216h6.054v-6.054h-6.054ZM102.922 12.108v6.054h-6.055v-6.054H84.756v42.378h12.111v-30.27h18.16V12.108Zm30.27 6.054H145.3V30.27h-12.108Zm-6.054-6.054v6.054h-6.058v30.27h6.057v6.054h24.216v-6.054h-18.161V36.324h24.216V18.162h-6.054v-6.054Zm72.646 0v6.054h-6.054V30.27h6.05v6.054h6.057v6.054h6.054v6.054H199.78v6.054h18.162v-6.054h6.054V36.324h-6.054V30.27h-6.051v-6.054h-6.051v-6.054h12.105v-6.054ZM42.38 0v54.486h12.106V18.162h12.108v36.324h12.111V18.162h-6.054v-6.054H54.486V0Zm133.187 0v6.054h-6.054v6.054h-6.054v6.054h6.054v36.324h12.111V18.162h6.056v-6.054h-6.054V6.054h12.105V0Z"/><path fill="#f80" d="M0 24.219h6.054v-6.054H0Zm12.108 12.105h12.111v12.111H12.108ZM6.054 12.108v6.057h18.162V30.27H6.054v6.054H0v12.111h6.054v6.051h30.27V18.165H30.27v-6.057Z"/></svg>