<svg xmlns="http://www.w3.org/2000/svg" width="174.733" height="68" viewBox="0 0 174.733 68"><defs><clipPath id="a"><path fill="none" d="M0 0h174.733v68H0z"/></clipPath></defs><g fill="#2e3133" fill-rule="evenodd" clip-path="url(#a)"><path d="M79.456 3.311A13.53 13.53 0 0 0 75.8 9.769l-9.411 36.149-7.761-29.64c-.75-3.1-2.153-7.059-4.305-9.663-2.7-3.3-8.261-3.505-8.862-3.505s-6.209.2-8.962 3.555a25.8 25.8 0 0 0-4.306 9.664l-7.76 29.639L15.12 9.769a12.86 12.86 0 0 0-3.655-6.458C6.859-.745 0 .107 0 .107l17.873 67.792s5.908.45 8.862-1.1c3.856-1.952 5.757-3.5 8.111-12.767 2.1-8.21 7.96-32.343 8.511-34.1.249-.851.6-2.9 2.1-2.9 1.552 0 1.852 2 2.1 2.9.55 1.7 6.358 25.885 8.511 34.1 2.353 9.212 4.205 10.714 8.111 12.767 2.954 1.552 8.862 1.1 8.862 1.1L90.921.157s-6.859-.851-11.465 3.154M107.393.058s-4.806-.15-7.41 1.251c-3.254 1.722-4.567 4.49-4.736 11.663-.007.145-.02 54.926-.02 54.926s4.556.551 7.46-.9c3.8-1.953 4.656-3.805 4.706-12.266Zm44.66 34.094L174.734.308s-9.563-1.652-14.319 2.7a53.5 53.5 0 0 0-6.458 7.711l-8.311 12.116c-.45.6-.9 1.3-1.752 1.3a2.09 2.09 0 0 1-1.752-1.3l-8.411-12.066a50 50 0 0 0-6.458-7.711c-4.706-4.356-14.319-2.7-14.319-2.7L135.681 34.1l-22.73 33.7s10.013 1.3 14.719-3.054a44 44 0 0 0 6.008-7.31l8.311-12.066c.45-.6.9-1.3 1.752-1.3a2.09 2.09 0 0 1 1.752 1.3l8.311 12.066a57 57 0 0 0 6.108 7.31c4.706 4.356 14.57 3.054 14.57 3.054Z"/></g></svg>