<svg xmlns="http://www.w3.org/2000/svg" width="56.158" height="55.553" viewBox="0 0 56.158 55.553"><defs><clipPath id="a"><path fill="#63bb7c" d="M0 0h56.158v55.553H0z"/></clipPath></defs><g fill="#63bb7c" clip-path="url(#a)"><path d="M4.033 2.521a.907.907 0 1 1-.907.907.907.907 0 0 1 .907-.907M41.942.706a.907.907 0 1 1-.908.907.907.907 0 0 1 .908-.907m11.292 15.123a.907.907 0 1 1-.908.907.907.907 0 0 1 .908-.907M2.218 17.644a.907.907 0 1 1-.907.907.91.91 0 0 1 .907-.907m49.1 23.996a.907.907 0 1 1-.907.907.907.907 0 0 1 .907-.907M4.134 49.806a.907.907 0 1 1-.907.907.907.907 0 0 1 .907-.907M43.656 6.352h-5.344a3.72 3.72 0 0 0-2.722-1.109h-3.831a3.831 3.831 0 1 0-7.662 0h-3.831a3.9 3.9 0 0 0-2.723 1.109h-6.049a4.26 4.26 0 0 0-4.235 4.234v10.385a8.127 8.127 0 0 0 0 12.4v17.948a4.26 4.26 0 0 0 4.235 4.234h31.859a4.26 4.26 0 0 0 4.235-4.234V10.486a3.757 3.757 0 0 0-3.932-4.134m-23.089.1H25a.65.65 0 0 0 .6-.6v-.609a2.521 2.521 0 1 1 5.042 0v.605a.65.65 0 0 0 .6.6h4.436a2.52 2.52 0 1 1 0 5.041H20.567a2.52 2.52 0 0 1 0-5.041M5.948 27.021a7.01 7.01 0 0 1 4.437-6.453c2.115 6.755 2.015 6.351 2.015 6.453a.68.68 0 0 0 .6.4c.2 0-.1.1 6.553-2.319a5.6 5.6 0 0 1 .2 1.916 6.95 6.95 0 0 1-6.853 6.959 6.845 6.845 0 0 1-6.957-6.956m8.772-6.655L13.006 24.9 11.6 20.265a8.2 8.2 0 0 1 3.125.1m-.7 5.445 2.419-6.453a8.66 8.66 0 0 1 4.133 4.133Zm-.2 21.474h27.714v2.52H13.812Zm32.755 3.934a2.927 2.927 0 0 1-2.924 2.924H11.8a2.927 2.927 0 0 1-2.924-2.924V34.179a9.4 9.4 0 0 0 3.824 1.108v15.124a.65.65 0 0 0 .6.6h29.045a.65.65 0 0 0 .6-.6V18.249a.6.6 0 1 0-1.21 0v27.726H13.812V35.187a8.187 8.187 0 0 0 7.159-8.166 7.6 7.6 0 0 0-.3-2.32l.907-.3a.686.686 0 0 0 .4-.807 9.74 9.74 0 0 0-5.646-5.645.6.6 0 0 0-.807.4l-.4 1.008a6 6 0 0 0-1.311-.2v-5.748a.605.605 0 0 0-1.21 0v5.647a7.64 7.64 0 0 0-3.831 1.108v-9.477a2.927 2.927 0 0 1 2.924-2.924h5.243a3.763 3.763 0 0 0 3.527 5.137H35.59a3.79 3.79 0 0 0 3.529-5.142h4.537a2.927 2.927 0 0 1 2.924 2.924ZM52.326 0a3.83 3.83 0 0 0-3.831 3.832 3.745 3.745 0 0 0 3.831 3.73 3.83 3.83 0 0 0 3.832-3.831A3.81 3.81 0 0 0 52.326 0m0 6.352a2.5 2.5 0 0 1-2.52-2.52 2.521 2.521 0 1 1 5.041 0 2.56 2.56 0 0 1-2.521 2.52"/><path d="M3.126 39.119a3.125 3.125 0 1 0 3.125 3.125 3.14 3.14 0 0 0-3.125-3.125m0 5.041a1.916 1.916 0 1 1 0-3.831 1.853 1.853 0 0 1 1.915 1.915 1.983 1.983 0 0 1-1.915 1.916m36.598-8.873H23.9a.605.605 0 0 0 0 1.21h15.723a.65.65 0 0 0 .6-.605.5.5 0 0 0-.5-.6M23.9 34.077h8.167a.6.6 0 0 0 0-1.209H23.9a.6.6 0 1 0 0 1.209m15.824-4.435H23.9a.6.6 0 1 0 0 1.21h15.723a.65.65 0 0 0 .6-.6.5.5 0 0 0-.5-.6M23.9 28.331h8.167a.605.605 0 0 0 0-1.21H23.9a.605.605 0 1 0 0 1.21M39.724 24H23.9a.6.6 0 1 0 0 1.21h15.723a.65.65 0 0 0 .6-.6.47.47 0 0 0-.5-.6M23.9 22.685h8.167a.605.605 0 0 0 0-1.21H23.9a.605.605 0 1 0 0 1.21"/></g></svg>