<svg xmlns="http://www.w3.org/2000/svg" width="232.162" height="79.9" viewBox="0 0 232.162 79.9"><defs><clipPath id="a"><path fill="none" d="M0 0h232.162v79.9H0z"/></clipPath><clipPath id="b"><path fill="none" d="M0 0h24.925v27.735H0z"/></clipPath><clipPath id="c"><path fill="none" d="M0 0h16.823v19.597H0z"/></clipPath><clipPath id="d"><path fill="none" d="M0 0h16.787v20.217H0z"/></clipPath><clipPath id="e"><path fill="none" d="M0 0h3.576v27.735H0z"/></clipPath><clipPath id="f"><path fill="none" d="M0 0h18.976v27.333H0z"/></clipPath><clipPath id="g"><path fill="none" d="M0 0h12.006v25.071H0z"/></clipPath><clipPath id="h"><path fill="none" d="M0 0h5.036v28.026H0z"/></clipPath><clipPath id="i"><path fill="none" d="M0 0h18.173v20.217H0z"/></clipPath><clipPath id="j"><path fill="none" d="M0 0h15.765v20.217H0z"/></clipPath></defs><g clip-path="url(#a)"><path fill="#747474" d="M136.471 21.716a10.31 10.31 0 1 1-10.31-10.278 10.15 10.15 0 0 1 10.31 10.278m-4.513 0a5.812 5.812 0 1 0-11.594 0 5.812 5.812 0 1 0 11.594 0"/><path fill="#747474" d="M158.713 21.716a10.31 10.31 0 1 1-10.31-10.278 10.15 10.15 0 0 1 10.31 10.278m-4.513 0a5.812 5.812 0 1 0-11.595 0 5.812 5.812 0 1 0 11.595 0m25.83-9.657v18.452c0 7.59-4.477 10.69-9.768 10.69a9.79 9.79 0 0 1-9.111-6.056l3.93-1.636a5.68 5.68 0 0 0 5.176 3.647c3.387 0 5.486-2.09 5.486-6.024v-1.478h-.157a7 7 0 0 1-5.413 2.336 10.285 10.285 0 0 1 0-20.551 7.12 7.12 0 0 1 5.413 2.3h.157v-1.671h4.287Zm-3.964 9.694c0-3.619-2.414-6.265-5.487-6.265a5.943 5.943 0 0 0-5.723 6.265 5.9 5.9 0 0 0 5.723 6.191c3.072 0 5.487-2.609 5.487-6.191m6.628-20.51h4.402v30.121h-4.402zm21.557 23.856 3.5 2.335a10.23 10.23 0 0 1-8.563 4.556 10.056 10.056 0 0 1-10.2-10.278c0-6.112 4.4-10.278 9.695-10.278 5.334 0 7.943 4.244 8.795 6.538l.468 1.168-13.74 5.691a5.23 5.23 0 0 0 4.982 3.114 5.87 5.87 0 0 0 5.063-2.846m-10.783-3.7 9.184-3.814a3.98 3.98 0 0 0-3.814-2.178 5.64 5.64 0 0 0-5.371 5.992m-94.281-2.357v-4.36h14.695a14.5 14.5 0 0 1 .218 2.632c0 3.271-.895 7.317-3.777 10.2a14.6 14.6 0 0 1-11.131 4.477A16.184 16.184 0 0 1 83 16.034 16.183 16.183 0 0 1 99.191.071a15.2 15.2 0 0 1 10.936 4.4l-3.077 3.077a11.12 11.12 0 0 0-7.864-3.114 11.45 11.45 0 0 0-11.445 11.6 11.45 11.45 0 0 0 11.446 11.6 10.68 10.68 0 0 0 8.059-3.193 9.04 9.04 0 0 0 2.363-5.4Z"/><g clip-path="url(#b)" transform="translate(82.688 43.808)"><path fill="#747474" d="M12.37 4.379 7.846 16.895h9.233L12.517 4.379ZM3.941 27.734H.001L10.436-.001h4.052l10.436 27.736h-3.94l-2.665-7.518H6.641Z"/></g><g clip-path="url(#c)" transform="translate(109.409 51.946)"><path fill="#747474" d="M0 .62h3.431v2.628h.144a6.14 6.14 0 0 1 2.483-2.3 7.16 7.16 0 0 1 3.5-.95 6.97 6.97 0 0 1 5.364 2.008 7.86 7.86 0 0 1 1.9 5.656v11.933h-3.575V7.919q-.109-4.666-4.671-4.671A4.47 4.47 0 0 0 5 5a6.2 6.2 0 0 0-1.425 4.087v10.51H0Z"/></g><g clip-path="url(#d)" transform="translate(129.147 51.946)"><path fill="#747474" d="M3.685 13.794a2.87 2.87 0 0 0 1.168 2.336 4.34 4.34 0 0 0 2.775.913 5.68 5.68 0 0 0 3.977-1.642 5.25 5.25 0 0 0 1.789-3.943 7.43 7.43 0 0 0-4.673-1.312 5.98 5.98 0 0 0-3.611 1.058 3.09 3.09 0 0 0-1.425 2.59M8.285 0a8.76 8.76 0 0 1 6.2 2.116 7.5 7.5 0 0 1 2.3 5.8v11.678h-3.391v-2.628h-.147a6.85 6.85 0 0 1-5.911 3.246 7.64 7.64 0 0 1-5.255-1.861A5.96 5.96 0 0 1 0 13.718a5.58 5.58 0 0 1 2.226-4.671 9.35 9.35 0 0 1 5.949-1.752 10.8 10.8 0 0 1 5.22 1.13v-.8a3.99 3.99 0 0 0-1.5-3.139 4.97 4.97 0 0 0-3.431-1.315 5.4 5.4 0 0 0-4.706 2.52L.619 3.72A8.72 8.72 0 0 1 8.282-.003"/></g><g clip-path="url(#e)" transform="translate(149.819 43.808)"><path fill="#747474" d="M.001-.001h3.576v27.735H.001z"/></g><g clip-path="url(#f)" transform="translate(155.443 52.567)"><path fill="#747474" d="m18.977 0-11.9 27.333H3.429l4.414-9.562L.005 0h3.868L9.53 13.649h.072L15.105 0Z"/></g><g clip-path="url(#g)" transform="translate(175.457 46.764)"><path fill="#747474" d="M8.758 25.071a5.42 5.42 0 0 1-3.832-1.422 5.25 5.25 0 0 1-1.569-3.98V9.056H0V5.802h3.357v-5.8h3.54v5.8h4.671v3.254H6.897v9.45a3.5 3.5 0 0 0 .731 2.592 2.52 2.52 0 0 0 1.677.656 4.3 4.3 0 0 0 .84-.072 7 7 0 0 0 .766-.254l1.1 3.174a10.2 10.2 0 0 1-3.249.474"/></g><g clip-path="url(#h)" transform="translate(189.789 43.516)"><path fill="#747474" d="M5.031 2.518a2.45 2.45 0 0 1-.766 1.789 2.515 2.515 0 0 1-3.541 0 2.48 2.48 0 0 1-.728-1.789A2.5 2.5 0 0 1 4.265.731a2.38 2.38 0 0 1 .766 1.787m-.729 25.509H.731V9.052h3.575Z"/></g><g clip-path="url(#i)" transform="translate(196.364 51.946)"><path fill="#747474" d="M9.744 20.217a9.28 9.28 0 0 1-7.007-2.882A10.16 10.16 0 0 1 0 10.109a10 10 0 0 1 2.737-7.226A9.32 9.32 0 0 1 9.744.001a8.9 8.9 0 0 1 5.073 1.46 9.1 9.1 0 0 1 3.249 4.015l-3.249 1.35a5.34 5.34 0 0 0-5.292-3.578 5.53 5.53 0 0 0-4.232 1.971 7.7 7.7 0 0 0 0 9.781 5.794 5.794 0 0 0 9.706-1.607l3.174 1.35a8.4 8.4 0 0 1-3.246 4.015 9.3 9.3 0 0 1-5.183 1.46"/></g><g clip-path="url(#j)" transform="translate(216.397 51.946)"><path fill="#747474" d="M15.765 14.341a5.15 5.15 0 0 1-2.188 4.2 8.64 8.64 0 0 1-5.439 1.679 8.73 8.73 0 0 1-5.035-1.5 8.3 8.3 0 0 1-3.1-3.942l3.174-1.35a6.1 6.1 0 0 0 2.044 2.665 4.92 4.92 0 0 0 2.92.948 5.1 5.1 0 0 0 2.847-.728 2.08 2.08 0 0 0 1.168-1.752q-.002-1.82-2.81-2.665l-3.249-.8Q.549 9.673.55 5.732a4.93 4.93 0 0 1 2.118-4.16 9.68 9.68 0 0 1 9.961-.364 6.54 6.54 0 0 1 2.847 3.212l-3.174 1.313a3.93 3.93 0 0 0-1.789-1.859 5.37 5.37 0 0 0-2.7-.693 4.73 4.73 0 0 0-2.518.693 2.02 2.02 0 0 0-1.1 1.714c0 1.077 1.021 1.852 3.064 2.336l2.847.728q5.651 1.4 5.656 5.694"/></g><path fill="#f8ab00" d="M48.985 9.351v58.782c0 6.583 4.536 10.242 9.351 10.242 4.453 0 9.351-3.117 9.351-10.242V9.8A9.365 9.365 0 0 0 58.338 0a9.51 9.51 0 0 0-9.351 9.351"/><path fill="#e37300" d="M24.492 39.187v28.946c0 6.582 4.536 10.242 9.351 10.242 4.453 0 9.351-3.118 9.351-10.242v-28.5a9.365 9.365 0 0 0-9.351-9.8 9.51 9.51 0 0 0-9.351 9.354M18.7 69.023a9.351 9.351 0 1 1-9.351-9.351 9.354 9.354 0 0 1 9.351 9.351"/></g></svg>